<?xml version="1.0" standalone="no"?>
<!DOCTYPE svg PUBLIC "-//W3C//DTD SVG 1.1//EN" "http://www.w3.org/Graphics/SVG/1.1/DTD/svg11.dtd" >
<svg xmlns="http://www.w3.org/2000/svg">
<metadata>Generated by IcoMoon</metadata>
<defs>
<font id="mf-icons" horiz-adv-x="1024">
<font-face units-per-em="1024" ascent="960" descent="-64" />
<missing-glyph horiz-adv-x="1024" />
<glyph unicode="&#x20;" horiz-adv-x="512" d="" />
<glyph unicode="&#xe900;" glyph-name="m_theme" d="M393.529 404.907h-265.529c-0.044 0-0.095-0.001-0.146-0.001-11.782 0-21.333 9.551-21.333 21.333 0 0.15 0.002 0.3 0.005 0.449v386.964c0 0 0 0 0 0 0 11.782 9.551 21.333 21.333 21.333 0.050 0 0.1 0 0.15-0.001h265.521c11.782 0 21.333-9.551 21.333-21.333v-386.987c0.003-0.127 0.004-0.277 0.004-0.427 0-11.782-9.551-21.333-21.333-21.333-0.002 0-0.003 0-0.005 0zM149.049 447.574h223.147v344.747h-223.004v-344.747zM896 19.2h-768c-11.782 0-21.333 9.551-21.333 21.333v282.596c0 11.782 9.551 21.333 21.333 21.333h768c11.782 0 21.333-9.551 21.333-21.333v-282.596c0-11.782-9.551-21.333-21.333-21.333 0 0 0 0 0 0zM148.48 61.867h726.898v239.929h-726.187v-239.929zM896 404.907h-394.24c-11.782 0-21.333 9.551-21.333 21.333v387.413c0 11.782 9.551 21.333 21.333 21.333h394.24c11.782 0 21.333-9.551 21.333-21.333v-386.987c0.003-0.127 0.004-0.277 0.004-0.427 0-11.782-9.551-21.333-21.333-21.333-0.002 0-0.003 0-0.005 0zM522.382 447.574h352.996v344.747h-352.284v-344.747z" />
<glyph unicode="&#xe901;" glyph-name="m_new" d="M899.84 457.387h-357.12v351.858h-56.889v-351.858h-357.262v-56.889h357.262v-358.827h56.889v358.827h357.12z" />
<glyph unicode="&#xe902;" glyph-name="m_check" d="M387.982 125.298l-281.316 281.316 40.107 40.107 241.209-241.067 527.36 527.502 40.249-40.249z" />
<glyph unicode="&#xe903;" glyph-name="m_search" d="M917.333 63.005l-257.422 268.373c42.24 49.636 67.84 113.778 67.84 183.893 0 156.871-127.573 284.444-284.444 284.444s-284.444-127.573-284.444-284.444 127.573-284.444 284.444-284.444c66.276 0 127.147 23.040 175.644 61.156l257.422-268.373 40.96 39.396zM215.609 515.271c0 125.44 102.116 227.556 227.556 227.556s227.556-102.116 227.556-227.556-102.116-227.556-227.556-227.556-227.556 102.116-227.556 227.556z" />
<glyph unicode="&#xe904;" glyph-name="m_close" d="M859.733 731.734l-40.249 40.249-306.347-306.347-305.351 305.493-40.249-40.249 305.493-305.351-307.769-307.769 40.249-40.249 307.627 307.769 310.044-309.902 40.107 40.107-309.902 310.044 306.347 306.204z" />
<glyph unicode="&#xe905;" glyph-name="m_prev-left" d="M694.471 26.738l-403.769 403.769 400.64 400.64 40.249-40.107-360.391-360.533 363.52-363.52z" />
<glyph unicode="&#xe906;" glyph-name="m_next-right" d="M352.284 26.738l-40.249 40.249 363.52 363.52-360.391 360.533 40.249 40.107 400.64-400.64z" />
<glyph unicode="&#xe907;" glyph-name="m_flow-goto-next" d="M838.258 503.467l-296.533-296.533v541.582h-56.889v-541.582l-296.391 296.533-40.249-40.249 365.084-365.227 365.227 365.227z" />
<glyph unicode="&#xe908;" glyph-name="m_flow-goto-prev" d="M878.364 391.396l-365.084 365.084-365.084-365.084 40.249-40.249 296.391 296.533v-541.582h56.889v541.582l296.533-296.533z" />
<glyph unicode="&#xe909;" glyph-name="m_forward-right" d="M485.12 794.169l-40.249-40.249 296.391-296.391h-541.582v-56.889h541.582l-296.391-296.391 40.249-40.249 365.084 365.084z" />
<glyph unicode="&#xe90a;" glyph-name="m_back-left" d="M827.022 457.529h-541.582l296.391 296.391-40.249 40.249-365.084-365.084 365.084-365.084 40.249 40.249-296.391 296.391h541.582z" />
<glyph unicode="&#xe90b;" glyph-name="m_flow-return" d="M795.876 682.24h-56.889v-230.116h-509.44l209.778 209.92-40.107 40.249-278.613-278.613 278.613-278.471 40.107 40.107-209.778 209.92h566.329z" />
<glyph unicode="&#xe90c;" glyph-name="m_reload-refresh" d="M787.484 633.316c-10.667 11.662-28.587 12.373-40.249 1.849s-12.373-28.587-1.849-40.249c52.196-57.031 80.924-130.987 80.924-208.071 0-170.667-139.804-309.618-311.751-309.618s-311.751 138.951-311.751 309.618c0 170.667 139.52 309.618 311.040 309.618 20.622 0 40.96-2.133 60.871-5.973l-83.2-83.2c-11.093-11.093-11.093-29.156 0-40.249 5.547-5.547 12.8-8.391 20.053-8.391s14.507 2.844 20.053 8.391l129.707 129.707c11.093 11.093 11.093 29.156 0 40.249l-127.858 127.858c-11.093 11.093-29.156 11.093-40.249 0s-11.093-29.156 0-40.249l75.378-75.378c-18.062 2.702-36.409 4.124-54.898 4.124-202.951 0-367.929-164.409-367.929-366.507s165.404-366.507 368.64-366.507c203.236 0 368.64 164.409 368.64 366.507 0.427 91.307-33.707 178.916-95.573 246.471z" />
<glyph unicode="&#xe90d;" glyph-name="m_claim" d="M511.289 19.058c-225.138 0-408.32 183.182-408.32 408.32s183.182 408.32 408.32 408.32c52.764 0 104.107-9.956 152.747-29.582 20.907-8.391 41.244-18.631 60.587-30.578 13.369-8.249 17.636-25.742 9.387-39.111s-25.742-17.636-39.111-9.387c-16.64 10.098-34.133 19.058-52.053 26.311-41.813 16.782-85.902 25.458-131.413 25.458-193.707 0-351.431-157.582-351.431-351.431 0-193.707 157.582-351.431 351.431-351.431 193.707 0 351.431 157.582 351.431 351.431 0 56.32-13.369 111.076-38.684 160.569l-313.6-330.809-184.604 184.604c-11.093 11.093-11.093 29.156 0 40.249s29.156 11.093 40.249 0l143.36-143.36 324.267 342.187 19.627-30.151c43.378-66.418 66.276-143.502 66.276-223.147-0.142-225.422-183.324-408.462-408.462-408.462z" />
<glyph unicode="&#xe90e;" glyph-name="m_history" d="M512.853 753.209c-18.489 0-36.836-1.422-54.898-4.124l75.378 75.378c11.093 11.093 11.093 29.156 0 40.249s-29.156 11.093-40.249 0l-127.858-127.858c-11.093-11.093-11.093-29.156 0-40.249l129.707-129.707c5.547-5.547 12.8-8.391 20.053-8.391s14.507 2.844 20.053 8.391c11.093 11.093 11.093 29.156 0 40.249l-83.2 83.2c19.911 3.982 40.249 5.973 60.871 5.973 171.52 0 311.040-138.951 311.040-309.618s-139.804-309.618-311.751-309.618c-171.947 0-311.751 138.951-311.751 309.618 0 67.129 21.76 131.982 61.867 185.173l229.404-229.404c11.093-11.093 29.156-11.093 40.249 0s11.093 29.156 0 40.249l-251.449 251.449c-5.547 5.547-12.658 8.533-20.764 8.391-7.822-0.142-15.076-3.556-20.338-9.244-61.867-67.556-95.858-155.164-95.858-246.471 0-202.098 165.404-366.507 368.64-366.507s368.64 164.409 368.64 366.507c0.284 201.956-164.836 366.364-367.787 366.364z" />
<glyph unicode="&#xe90f;" glyph-name="m_configure" d="M512 279.894c-80.962 0.646-146.345 66.427-146.345 147.48 0 81.453 66.031 147.484 147.484 147.484s147.484-66.031 147.484-147.484c0-0.248-0.001-0.497-0.002-0.745-0.643-81.161-66.617-146.737-147.907-146.737-0.252 0-0.503 0.001-0.754 0.002zM512 527.076c-54.553-0.563-98.56-44.918-98.56-99.551 0-54.983 44.573-99.556 99.556-99.556 54.981 0 99.553 44.57 99.556 99.55-0.323 55.131-45.089 99.698-100.265 99.698-0.101 0-0.201 0-0.302 0zM774.116 380.303c-16.77-3.356-30.167-15.149-35.736-30.672-3.747-10.697-7.348-19.15-11.401-27.34-2.411-4.659-4.191-11.811-4.191-19.378 0-9.864 3.025-19.021 8.197-26.595l51.237-71.517-46.080-45.796-72.249 51.2c-7.417 4.916-16.525 7.843-26.316 7.843-7.547 0-14.689-1.739-21.045-4.839-6.529-3.296-15.030-6.898-23.763-10.014-17.541-6.112-29.367-19.399-32.787-35.774l-14.276-85.643h-65.707l-14.222 85.333c-3.474 16.684-15.3 29.971-30.813 35.453-10.926 3.73-19.574 7.335-27.953 11.405-4.632 2.364-11.791 4.118-19.36 4.118-9.893 0-19.086-2.997-26.72-8.134l-71.793-50.665-46.080 45.796 51.058 71.111c5.017 7.414 8.009 16.556 8.009 26.396 0 7.523-1.749 14.637-4.862 20.959-3.304 6.51-6.905 14.963-10.019 23.648-6.221 17.512-19.606 29.294-36.057 32.626l-92.182 14.274v65.564l91.876 14.222c16.757 3.384 30.142 15.166 35.735 30.671 3.727 10.672 7.328 19.125 11.39 27.31 2.397 4.668 4.162 11.791 4.162 19.326 0 9.838-3.009 18.974-8.157 26.537l-52.232 72.938 46.222 46.222 73.102-52.053c7.471-5.015 16.666-8.004 26.56-8.004 7.563 0 14.718 1.747 21.084 4.858 6.534 3.3 15.036 6.902 23.769 10.016 17.535 6.11 29.361 19.397 32.782 35.771l14.276 90.336h65.138l14.222-90.027c3.501-16.714 15.384-30.011 30.955-35.454 10.739-3.727 19.241-7.33 27.475-11.392 4.683-2.362 11.838-4.109 19.401-4.109 9.894 0 19.090 2.989 26.734 8.113l73.924 51.944 46.080-45.796-52.622-72.96c-5.017-7.414-8.009-16.556-8.009-26.396 0-7.523 1.749-14.637 4.862-20.959 3.35-6.522 6.997-14.971 10.155-23.655 6.202-17.521 19.599-29.314 36.065-32.619l85.638-14.273v-64.711zM870.684 509.44l-76.089 15.36c-4.563 12.887-9.074 23.404-14.15 33.59l43.448 62.694c5.21 7.702 8.318 17.197 8.318 27.419 0 13.688-5.573 26.074-14.573 35.014l-47.932 47.647c-9.030 9.011-21.494 14.583-35.26 14.583-10.283 0-19.84-3.109-27.782-8.439l-64.674-42.553c-8.508 4.249-19.125 8.717-30.030 12.575l-16.761 76.314c-4.735 22.874-24.716 39.822-48.656 39.822-0.044 0-0.089 0-0.133 0h-67.691c-0.003 0-0.007 0-0.010 0-23.967 0-43.979-16.939-48.715-39.498l-15.275-76.271c-13.018-4.511-23.635-8.979-33.924-14.014l-63.071 43.454c-7.762 5.216-17.319 8.325-27.602 8.325-13.766 0-26.23-5.572-35.261-14.584l-47.928-47.644c-9.003-8.943-14.575-21.329-14.575-35.017 0-10.221 3.107-19.717 8.429-27.593l42.555-64.252c-4.314-8.51-8.827-19.076-12.723-29.936l-77.020-17.282c-22.728-4.704-39.603-24.456-39.822-48.19v-67.295c0.093-23.914 17.082-43.832 39.645-48.443l76.551-15.272c4.796-12.642 9.485-22.951 14.722-32.928l-43.45-62.788c-5.602-7.897-8.955-17.731-8.955-28.349 0-13.792 5.657-26.262 14.778-35.217l47.936-47.652c9.030-9.011 21.494-14.583 35.26-14.583 10.283 0 19.84 3.109 27.782 8.439l64.674 42.553c8.549-4.282 19.167-8.75 30.080-12.594l17.137-75.726c4.794-22.883 24.805-39.822 48.772-39.822 0.004 0 0.007 0 0.011 0h67.697c0.003 0 0.007 0 0.010 0 23.967 0 43.979 16.939 48.715 39.498l15.417 76.129c13.019 4.511 23.636 8.979 33.925 14.015l63.070-43.455c7.762-5.216 17.319-8.325 27.602-8.325 13.766 0 26.23 5.572 35.261 14.584l47.786 46.932c9.259 8.981 15.005 21.539 15.005 35.439 0 10.223-3.109 19.721-8.432 27.598l-42.555 64.252c4.324 8.523 8.837 19.089 12.728 29.951l76.872 17.267c22.169 5.282 38.4 24.919 38.4 48.347 0 0.053 0 0.106 0 0.159v67.263c0 0.021 0 0.047 0 0.072 0 23.787-16.732 43.665-39.068 48.508z" />
<glyph unicode="&#xe910;" glyph-name="m_hamburger-menu" d="M126.862 713.814h770.844v-56.889h-770.844v56.889zM126.862 454.827h770.844v-56.889h-770.844v56.889zM126.862 199.823h770.844v-56.889h-770.844v56.889z" />
<glyph unicode="&#xe911;" glyph-name="m_circle-horz-menu-fill" d="M286.862 428.374c0-43.515-35.276-78.791-78.791-78.791s-78.791 35.276-78.791 78.791c0 43.515 35.276 78.791 78.791 78.791s78.791-35.276 78.791-78.791zM593.92 428.374c0-43.515-35.276-78.791-78.791-78.791s-78.791 35.276-78.791 78.791c0 43.515 35.276 78.791 78.791 78.791s78.791-35.276 78.791-78.791zM895.716 428.374c0-43.515-35.276-78.791-78.791-78.791s-78.791 35.276-78.791 78.791c0 43.515 35.276 78.791 78.791 78.791s78.791-35.276 78.791-78.791z" />
<glyph unicode="&#xe912;" glyph-name="m_circle-vert-menu-fill" d="M593.351 731.734c0-43.515-35.276-78.791-78.791-78.791s-78.791 35.276-78.791 78.791c0 43.515 35.276 78.791 78.791 78.791s78.791-35.276 78.791-78.791zM593.351 426.809c0-43.515-35.276-78.791-78.791-78.791s-78.791 35.276-78.791 78.791c0 43.515 35.276 78.791 78.791 78.791s78.791-35.276 78.791-78.791zM593.351 118.614c0-43.515-35.276-78.791-78.791-78.791s-78.791 35.276-78.791 78.791c0 43.515 35.276 78.791 78.791 78.791s78.791-35.276 78.791-78.791z" />
<glyph unicode="&#xe913;" glyph-name="m_circle-vert-menu" d="M512 615.538c-54.119 0-97.991 43.872-97.991 97.991s43.872 97.991 97.991 97.991c54.119 0 97.991-43.872 97.991-97.991-0.081-54.086-43.905-97.91-97.983-97.991zM512 773.263c0 0 0 0 0 0-32.911 0-59.591-26.68-59.591-59.591s26.68-59.591 59.591-59.591c32.911 0 59.591 26.68 59.591 59.591-0.081 32.879-26.712 59.51-59.583 59.591zM512 329.814c-54.119 0-97.991 43.872-97.991 97.991s43.872 97.991 97.991 97.991c54.119 0 97.991-43.872 97.991-97.991-0.081-54.086-43.905-97.91-97.983-97.991zM512 487.538c0 0 0 0 0 0-32.911 0-59.591-26.68-59.591-59.591s26.68-59.591 59.591-59.591c32.911 0 59.591 26.68 59.591 59.591-0.161 32.817-26.762 59.369-59.583 59.449zM512 40.818c-54.119 0-97.991 43.872-97.991 97.991s43.872 97.991 97.991 97.991c54.119 0 97.991-43.872 97.991-97.991-0.081-54.086-43.905-97.91-97.983-97.991zM512 199.111c0 0 0 0 0 0-32.911 0-59.591-26.68-59.591-59.591s26.68-59.591 59.591-59.591c32.911 0 59.591 26.68 59.591 59.591-0.081 32.879-26.712 59.51-59.583 59.591z" />
<glyph unicode="&#xe914;" glyph-name="m_control-play-71" d="M390.684 116.907c-16.071 0-32.142 4.124-47.076 12.516-32.142 18.062-52.196 52.907-52.196 91.022v404.48c0 38.116 20.053 72.96 52.196 91.022 30.72 17.209 67.129 16.498 97.28-1.849l330.951-202.24c30.72-18.773 49.067-52.053 49.067-89.173s-18.347-70.4-49.067-89.173l-330.951-202.24c-15.644-9.671-32.853-14.364-50.204-14.364zM390.684 671.431c-6.542 0-13.084-1.707-19.2-5.12-14.507-8.107-23.182-23.609-23.182-41.387v-404.48c0-17.778 8.676-33.28 23.182-41.387 12.8-7.111 27.164-6.827 39.68 0.853l330.951 202.24c13.653 8.391 21.76 23.467 21.76 40.676s-8.107 32.284-21.76 40.676l-330.951 202.24c-6.4 3.698-13.511 5.689-20.48 5.689z" />
<glyph unicode="&#xe915;" glyph-name="m_circle-horz-menu" d="M227.556 327.111c-54.119 0-97.991 43.872-97.991 97.991s43.872 97.991 97.991 97.991c54.119 0 97.991-43.872 97.991-97.991-0.081-54.086-43.905-97.91-97.983-97.991zM227.556 484.836c-32.911 0-59.591-26.68-59.591-59.591s26.68-59.591 59.591-59.591c32.911 0 59.591 26.68 59.591 59.591-0.081 32.879-26.712 59.51-59.583 59.591zM515.129 327.111c-54.119 0-97.991 43.872-97.991 97.991s43.872 97.991 97.991 97.991c54.119 0 97.991-43.872 97.991-97.991-0.081-54.086-43.905-97.91-97.983-97.991zM515.129 484.836c0 0 0 0 0 0-32.911 0-59.591-26.68-59.591-59.591s26.68-59.591 59.591-59.591c32.911 0 59.591 26.68 59.591 59.591-0.081 32.879-26.712 59.51-59.583 59.591zM797.724 327.111c-53.997 0.162-97.707 43.972-97.707 97.991 0 54.119 43.872 97.991 97.991 97.991s97.991-43.872 97.991-97.991c-0.081-54.136-43.986-97.991-98.133-97.991-0.050 0-0.1 0-0.15 0zM797.724 484.836c0 0 0 0 0 0-32.911 0-59.591-26.68-59.591-59.591s26.68-59.591 59.591-59.591c32.911 0 59.591 26.68 59.591 59.591-0.081 32.879-26.712 59.51-59.583 59.591z" />
<glyph unicode="&#xe916;" glyph-name="m_control-rewind" d="M645.262 116.907c-17.351 0-34.56 4.836-50.204 14.364l-330.951 202.24c-30.72 18.773-48.924 52.053-48.924 89.173s18.347 70.4 48.924 89.173l330.951 202.24c30.151 18.347 66.418 19.058 97.28 1.849 32.284-18.062 52.196-52.907 52.196-91.022v-404.48c0-38.116-20.053-72.96-52.196-91.022-14.791-8.391-31.004-12.516-47.076-12.516zM645.262 671.431c-6.969 0-14.080-1.991-20.48-5.973l-330.951-202.24c-13.653-8.391-21.76-23.467-21.76-40.676s8.107-32.284 21.76-40.676l330.951-202.24c12.516-7.68 27.022-7.964 39.68-0.853 14.507 8.107 23.182 23.609 23.182 41.387v404.48c0 17.778-8.676 33.28-23.182 41.387-6.116 3.698-12.658 5.404-19.2 5.404z" />
<glyph unicode="&#xe917;" glyph-name="m_control-fast-forward" d="M877.653 511.858l-330.951 202.24c-30.151 18.347-66.56 19.058-97.28 1.849-32.284-18.062-52.196-52.907-52.196-91.022v-51.342l-164.409 100.409c-27.022 16.498-59.449 17.067-86.898 1.707-28.729-16.071-46.507-47.218-46.507-81.067v-343.893c0-33.991 17.778-64.996 46.507-81.067 13.227-7.396 27.591-11.093 42.098-11.093 15.502 0 30.862 4.267 44.942 12.8l164.409 100.409v-51.342c0-38.116 20.053-72.96 52.196-91.022 14.791-8.249 30.862-12.516 47.076-12.516 17.351 0 34.56 4.836 50.204 14.364l330.951 202.24c30.72 18.773 49.067 52.053 49.067 89.173s-18.489 70.4-49.209 89.173zM203.236 219.876c-12.8-7.822-23.893-3.698-29.44-0.569-10.951 6.116-17.493 17.92-17.493 31.431v343.893c0 13.511 6.542 25.316 17.493 31.431 3.129 1.707 8.249 3.84 14.364 3.84 4.551 0 9.671-1.138 15.076-4.409l193.991-118.613v-168.533l-193.991-118.471zM454.116 472.036l30.436-18.631c10.382-6.258 16.498-17.778 16.498-30.862s-6.116-24.604-16.498-30.862l-30.436-18.631v98.987zM847.929 382.009l-330.951-202.24c-12.516-7.68-27.022-7.964-39.68-0.853-14.507 8.107-23.182 23.609-23.182 41.387v86.187l60.018 36.693c27.307 16.782 43.662 46.364 43.662 79.36s-16.356 62.72-43.662 79.36l-60.018 36.693v86.187c0 17.778 8.676 33.28 23.182 41.387 6.116 3.413 12.658 5.12 19.2 5.12 6.969 0 14.080-1.991 20.48-5.973l330.951-202.24c13.653-8.391 21.76-23.467 21.76-40.676s-8.107-32-21.76-40.391z" />
<glyph unicode="&#xe918;" glyph-name="m_control-fast-rewind" d="M875.804 675.698c-27.449 15.36-60.018 14.791-86.898-1.707l-160.711-98.276v49.209c0 38.116-20.053 72.96-52.196 91.022-30.72 17.209-67.129 16.498-97.28-1.849l-330.951-202.24c-30.72-18.773-48.924-52.053-48.924-89.173s18.347-70.4 48.924-89.173l330.951-202.24c15.644-9.529 32.853-14.364 50.204-14.364 16.071 0 32.142 4.124 47.076 12.516 32.142 18.062 52.196 52.907 52.196 91.022v49.209l160.711-98.276c13.938-8.533 29.44-12.8 44.942-12.8 14.364 0 28.871 3.698 42.098 11.093 28.729 16.071 46.507 47.218 46.507 81.067v343.893c0 33.849-17.92 64.996-46.649 81.067zM571.307 220.303c0-17.778-8.676-33.28-23.182-41.387-12.8-7.111-27.164-6.827-39.68 0.853l-330.951 202.24c-13.653 8.391-21.76 23.467-21.76 40.676s8.107 32.284 21.76 40.676l330.951 202.24c6.542 3.982 13.511 5.973 20.48 5.973 6.542 0 13.084-1.707 19.2-5.12 14.507-8.107 23.182-23.609 23.182-41.387v-83.911l-63.573-38.827c-27.307-16.782-43.662-46.364-43.662-79.36s16.356-62.72 43.662-79.36l63.573-38.827v-84.48zM571.307 474.311v-103.253l-33.991 20.764c-10.382 6.258-16.498 17.778-16.498 30.862s6.116 24.604 16.498 30.862l33.991 20.764zM865.564 250.738c0-13.511-6.542-25.316-17.493-31.431-5.547-3.129-16.782-7.111-29.44 0.569l-190.436 116.338v172.8l190.436 116.338c12.658 7.822 23.893 3.698 29.44 0.569 10.951-6.116 17.493-17.92 17.493-31.431v-343.751z" />
<glyph unicode="&#xe919;" glyph-name="m_control-goto-end" d="M239.929 116.907c-16.071 0-32.142 4.124-47.076 12.516-32.142 18.062-52.196 52.907-52.196 91.022v404.48c0 38.116 20.053 72.96 52.196 91.022 30.72 17.209 67.129 16.498 97.28-1.849l330.951-202.24c30.72-18.773 49.067-52.053 49.067-89.173s-18.347-70.4-49.067-89.173l-330.951-202.24c-15.502-9.671-32.853-14.364-50.204-14.364zM239.929 671.431c-6.542 0-13.084-1.707-19.2-5.12-14.507-8.107-23.182-23.609-23.182-41.387v-404.48c0-17.778 8.676-33.28 23.182-41.387 12.8-7.111 27.164-6.827 39.68 0.853l330.951 202.24c13.653 8.391 21.76 23.467 21.76 40.676s-8.107 32.284-21.76 40.676l-330.951 202.24c-6.4 3.698-13.369 5.689-20.48 5.689zM852.48 141.796h-103.111c-15.644 0-28.444 12.8-28.444 28.444v511.858c0 15.644 12.8 28.444 28.444 28.444h103.111c15.644 0 28.444-12.8 28.444-28.444v-511.858c0-15.787-12.8-28.444-28.444-28.444zM777.813 198.685h46.222v454.969h-46.222v-454.969z" />
<glyph unicode="&#xe91a;" glyph-name="m_control-goto-start" d="M784.071 116.907c-17.351 0-34.56 4.836-50.204 14.364l-330.951 202.24c-30.72 18.773-49.067 52.053-49.067 89.173s18.347 70.4 49.067 89.173l330.951 202.24c30.151 18.347 66.418 19.058 97.28 1.849 32.284-18.062 52.196-52.907 52.196-91.022v-404.48c0-38.116-20.053-72.96-52.196-91.022-14.933-8.391-31.004-12.516-47.076-12.516zM763.449 179.769c12.516-7.68 27.022-7.964 39.68-0.853 14.507 8.107 23.182 23.609 23.182 41.387v404.48c0 17.778-8.676 33.28-23.182 41.387-12.8 7.111-27.164 6.827-39.68-0.853l-330.951-202.24c-13.653-8.391-21.76-23.467-21.76-40.676s8.107-32.284 21.76-40.676l330.951-201.956zM274.631 141.796h-103.111c-15.644 0-28.444 12.8-28.444 28.444v511.858c0 15.644 12.8 28.444 28.444 28.444h103.111c15.644 0 28.444-12.8 28.444-28.444v-511.858c0-15.787-12.658-28.444-28.444-28.444zM199.964 198.685h46.222v454.969h-46.222v-454.969z" />
<glyph unicode="&#xe91b;" glyph-name="m_control-pause" d="M411.164 141.796h-103.111c-15.644 0-28.444 12.8-28.444 28.444v511.858c0 15.644 12.8 28.444 28.444 28.444h103.111c15.644 0 28.444-12.8 28.444-28.444v-511.858c0-15.787-12.8-28.444-28.444-28.444zM336.498 198.685h46.222v454.969h-46.222v-454.969zM722.916 141.796h-103.111c-15.644 0-28.444 12.8-28.444 28.444v511.858c0 15.644 12.8 28.444 28.444 28.444h103.111c15.644 0 28.444-12.8 28.444-28.444v-511.858c0-15.787-12.658-28.444-28.444-28.444zM648.249 198.685h46.222v454.969h-46.222v-454.969z" />
<glyph unicode="&#xe91c;" glyph-name="m_control-stop" d="M763.449 141.796h-500.907c-15.644 0-28.444 12.8-28.444 28.444v511.858c0 15.644 12.8 28.444 28.444 28.444h500.907c15.644 0 28.444-12.8 28.444-28.444v-511.858c0-15.787-12.8-28.444-28.444-28.444zM290.844 198.685h444.018v454.969h-444.018v-454.969z" />
<glyph unicode="&#xe91d;" glyph-name="m_user" d="M896 28.445h-766.72c-0.002 0-0.005 0-0.008 0-11.782 0-21.333 9.551-21.333 21.333 0 0.2 0.003 0.399 0.008 0.598 0.995 35.242 4.266 151.295 6.257 164.095v2.987c1.983 25.974 17.482 47.919 39.41 58.976 39.718 20.998 85.703 39.77 133.645 53.988 35.498 9.547 61.628 19.984 86.196 32.979 8.567 22.213 15.305 49.272 16.504 77.763l-4.963 5.698c-12.987 11.698-21.685 27.937-23.583 46.196l-1.733 1.733c-6.005 4.955-11.173 10.621-15.465 16.93-13.766 18.691-22.413 41.493-23.774 66.237-0.028 0.921-0.036 1.632-0.036 2.345 0 8.122 1.046 15.999 3.010 23.505 1.174 4.583 1.931 10.585 1.931 16.763 0 1.231-0.030 2.454-0.089 3.67l0.007 5.091c-0.007 0.881-0.012 1.922-0.012 2.964 0 38.865 5.878 76.358 16.795 111.637 8.769 30.575 28.911 58.193 55.711 76.948 9.309 6.874 20.439 10.819 32.49 10.819 3.055 0 6.050-0.253 8.967-0.74 4.33-0.304 9.747-0.502 15.21-0.502 21.829 0 42.919 3.161 62.839 9.049 45.795 10.128 99.981-15.472 131.981-40.788s49.636-53.476 50.062-80.356c-0.103-2.952-0.161-6.421-0.161-9.903 0-21.005 2.13-41.513 6.186-61.319 0.802-3.586 2.082-9.275 3.362-17.951 0.4-3.997 1.459-7.659 3.072-11.005 3.656-7.711 5.84-16.981 5.84-26.762 0-1.224-0.034-2.439-0.102-3.646-1.495-27.736-10.086-53.355-23.98-75.281-4.823-7.542-9.055-17.002-11.822-27.070-1.565-21.307-12.89-38.963-29.346-49.080l-2.4-1.575c2.271-25.866 8.54-49.704 18.205-71.713 22.111-11.798 48.374-23.563 75.93-32.45 51.807-17.827 92.709-35.69 132.005-56.209 17.253-9.501 32.816-31.971 34.962-58.238 2.151-14.493 5.422-130.404 6.418-165.675 0.008-0.212 0.012-0.461 0.012-0.712 0-11.782-9.551-21.333-21.333-21.333-0.054 0-0.108 0-0.162 0.001zM151.324 71.111h723.058c-1.849 64.142-4.124 129.138-5.12 136.96v1.422c-0.083 12.983-7.493 24.215-18.3 29.778-32.628 17.177-71.701 34.177-112.065 48.447-40.836 12.714-70.705 26.527-98.314 43.641-23.055 16.801-33.437 94.028-32.869 107.255 0.919 14.067 8.91 26.082 20.422 32.607 6.847 3.618 11.299 10.487 11.299 18.396 0 0.169-0.002 0.338-0.006 0.507 3.762 17.53 10.367 33.057 19.382 46.868 8.667 14.124 14.598 31.564 16.146 50.248 0.118 1.221 0.17 2.145 0.17 3.082 0 3.781-0.838 7.366-2.339 10.58-2.97 6.26-5.173 13.704-6.156 21.526-1.033 7.76-2.171 12.595-3.166 17.289-4.265 20.093-6.707 43.179-6.707 66.836 0 3.704 0.060 7.394 0.179 11.069-0.014 12.691-13.24 30.895-33.863 47.109-31.573 24.747-71.111 38.116-97.849 32.284-21.062-6.181-45.259-9.737-70.286-9.737-7.048 0-14.029 0.282-20.935 0.835-0.365 0.356-1.832 0.596-3.355 0.596-3.878 0-7.394-1.552-9.96-4.070-18.149-13.146-31.656-31.72-38.209-53.318-9.231-29.86-14.439-63.357-14.439-98.070 0-1.527 0.010-3.052 0.030-4.574l-0.002-4.32c0.040-1.137 0.063-2.474 0.063-3.816 0-9.597-1.164-18.923-3.357-27.844-0.857-3.032-1.445-7.428-1.445-11.961 0-0.765 0.017-1.526 0.050-2.283 1.393-16.143 7.378-30.773 16.633-42.746 2.224-2.835 4.89-5.456 7.86-7.699 9.074-6.103 15.245-15.696 16.588-26.778 0.085-9.8 4.604-18.35 11.616-23.882 9.325-7.894 15.635-18.97 17.247-31.518 1.733-20.869-11.636-98.807-34.392-116.158-18.062-14.222-50.916-24.462-92.302-37.973-50.42-14.72-93.812-32.331-134.936-53.704-6.868-2.787-14.402-13.497-14.402-25.966 0-0.191 0.002-0.382 0.005-0.572v-3.669c-1.991-7.253-4.267-72.107-5.973-136.676zM664.889 366.649v0z" />
<glyph unicode="&#xe91e;" glyph-name="m_profile" d="M641.991 562.347h237.938v-26.027h-237.938v26.027zM641.991 485.689h237.938v-26.027h-237.938v26.027zM641.991 708.551h105.671v-100.693h-105.671v100.693zM795.591 609.565v24.462h84.338v-24.462h-84.338zM795.591 681.956v24.604h84.338v-24.462h-84.338v-0.142zM641.991 383.716v24.604h237.938v-24.462l-237.938-0.142zM924.444 825.885h-327.111c-8.009-0.011-15.445-2.454-21.612-6.629-2.679 2.817-6.259 4.775-10.251 5.61l-42.804 8.557c-1.325 0.295-2.847 0.464-4.409 0.464s-3.084-0.169-4.549-0.489c-18.218-5.472-39.313-8.636-61.147-8.636-5.509 0-10.971 0.201-16.379 0.597-1.877 0.401-4.873 0.654-7.927 0.654-12.052 0-23.182-3.945-32.17-10.613-27.112-18.97-47.251-46.584-56.493-78.805-10.367-33.506-16.195-70.856-16.195-109.566 0-1.189 0.006-2.378 0.016-3.564l-0.001-4.654c0.053-1.045 0.083-2.268 0.083-3.499 0-6.178-0.756-12.18-2.181-17.917-1.713-6.367-2.758-14.261-2.758-22.4 0-0.696 0.008-1.39 0.023-2.083 1.364-24.959 10.013-47.763 23.845-66.51 4.366-6.143 9.67-11.718 15.664-16.458l1.876-1.551c2.027-18.626 10.877-34.872 23.959-46.44l5.055-5.329c-1.413-28.986-8.342-56.019-19.754-80.544-21.815-10.54-47.854-20.883-75.088-28.332-56.099-16.235-102.083-35.008-145.608-57.833-18.14-9.208-33.649-31.165-35.588-56.908l-0.015-3.227c-1.991-12.8-5.262-128.853-6.258-164.124-0.011-0.255-0.017-0.553-0.017-0.853 0-11.782 9.551-21.333 21.333-21.333 0.006 0 0.012 0 0.018 0h766.577c11.782 0 21.333 9.551 21.333 21.333v169.671c0 11.782-9.551 21.333-21.333 21.333s-21.333-9.551-21.333-21.333v-148.338h-723.769c1.849 64.142 4.124 128.996 5.12 136.818v3.698c-0.003 0.162-0.005 0.352-0.005 0.544 0 12.469 7.534 23.179 18.297 27.825 37.226 19.51 80.618 37.121 125.821 50.517 46.748 14.838 79.459 25.363 97.522 39.3 23.324 16.498 36.693 94.72 34.987 116.053-1.652 12.79-7.959 23.863-17.138 31.657-7.147 5.64-11.667 14.191-11.733 23.799-1.361 11.273-7.531 20.866-16.363 26.806-3.204 2.415-5.87 5.035-8.17 7.956-9.187 11.879-15.172 26.509-16.548 42.457-0.049 0.943-0.066 1.693-0.066 2.448 0 4.544 0.587 8.95 1.689 13.148 1.948 7.764 3.111 17.089 3.111 26.687 0 1.342-0.023 2.678-0.068 4.009l0.005 4.073c-0.018 1.291-0.028 2.816-0.028 4.343 0 34.713 5.208 68.211 14.885 99.753 6.079 19.896 19.535 38.464 37.33 51.435 2.856 2.718 6.372 4.271 10.25 4.271 1.523 0 2.99-0.239 4.365-0.682 5.801-0.466 12.671-0.748 19.608-0.748 23.345 0 45.946 3.19 67.388 9.159l36.352-8.099h1.849v-469.333c0.24-21.339 17.594-38.545 38.967-38.545 0.151 0 0.301 0.001 0.452 0.003h327.088c21.522 0 38.969 17.447 38.969 38.969v472.462c0 21.522-17.447 38.969-38.969 38.969zM934.969 313.885c0-5.812-4.712-10.524-10.524-10.524h-327.111c-5.812 0-10.524 4.712-10.524 10.524v473.031c0 5.812 4.712 10.524 10.524 10.524h327.111c5.812 0 10.524-4.712 10.524-10.524v-472.462z" />
<glyph unicode="&#xe91f;" glyph-name="m_date" d="M400.498 212.054q6.969 7.396 31.716 28.444c15.515 12.606 29.437 25.492 42.492 39.211 7.437 7.984 13.537 16.996 18.115 26.859 3.246 7.952 4.976 16.445 4.976 25.341 0 0.564-0.007 1.126-0.021 1.686 0.011 0.308 0.016 0.769 0.016 1.231 0 16.993-7.216 32.301-18.752 43.026-12.545 11.217-29.146 18.052-47.344 18.052-1.319 0-2.63-0.036-3.931-0.107-0.97 0.071-2.317 0.108-3.673 0.108-17.909 0-34.342-6.317-47.194-16.844-12.642-12.114-20.759-29.11-21.341-48.003l28.442-2.95c-0.035 0.661-0.054 1.435-0.054 2.214 0 11.913 4.62 22.746 12.167 30.806 7.644 7.397 18.107 11.971 29.638 11.971 0.723 0 1.441-0.018 2.155-0.053 0.362 0.022 0.905 0.032 1.451 0.032 11.156 0 21.311-4.281 28.914-11.291 7.16-6.69 11.64-16.227 11.64-26.81 0-0.265-0.003-0.53-0.008-0.793-0.667-12.639-5.387-24.101-12.878-33.196-14.645-17.595-30.83-33.193-48.565-46.879-13.934-11.005-25.698-22.093-36.453-34.104-7.665-8.715-13.762-18.558-18.060-29.314-2.249-5.802-3.414-11.733-3.414-17.936 0-0.734 0.016-1.464 0.049-2.189l148.050 0.103v26.596h-109.796c3.547 5.566 7.392 10.406 11.682 14.811zM633.316 292.267c10.164 3.418 18.642 9.601 24.798 17.654 5.174 7.381 8.213 16.394 8.213 26.117 0 0.412-0.005 0.823-0.016 1.233 0.005 0.184 0.007 0.472 0.007 0.761 0 16.096-6.892 30.583-17.886 40.67-11.653 10.663-27.185 17.173-44.238 17.173-1.062 0-2.119-0.025-3.169-0.075-0.687 0.044-1.665 0.066-2.649 0.066-16.847 0-32.199-6.395-43.763-16.891-10.807-9.919-17.591-24.18-17.591-40.026 0-0.361 0.004-0.722 0.011-1.082-0.024-0.501-0.038-1.152-0.038-1.806 0-9.941 3.1-19.158 8.386-26.737 6.247-8.129 14.877-14.37 24.849-17.663-12.538-3.084-23.44-10.237-31.116-20.037-7.047-9.7-11.219-21.692-11.219-34.66 0-0.708 0.012-1.413 0.037-2.115-0.015-0.363-0.021-0.91-0.021-1.459 0-18.633 7.807-35.443 20.328-47.337 13.139-12.235 30.782-19.728 50.176-19.728 1.171 0 2.335 0.027 3.492 0.081 0.858-0.057 2.054-0.085 3.258-0.085 19.34 0 36.942 7.438 50.103 19.609 12.49 11.716 20.302 28.388 20.302 46.884 0 0.452-0.005 0.902-0.014 1.352 0.016 0.429 0.024 1.012 0.024 1.597 0 12.919-4.111 24.878-11.097 34.64-7.569 10.197-18.297 17.932-30.739 21.752zM565.049 338.916c-0.002 0.117-0.002 0.256-0.002 0.395 0 9.387 3.989 17.843 10.364 23.764 6.849 6.359 16.029 10.25 26.118 10.25s19.269-3.891 26.122-10.254c6.472-6.225 10.508-14.99 10.508-24.698 0-0.259-0.003-0.518-0.009-0.776 0.005-0.155 0.007-0.384 0.007-0.613 0-9.485-3.985-18.040-10.373-24.081-6.403-6.19-15.115-9.995-24.716-9.995-0.466 0-0.931 0.009-1.393 0.027-0.411-0.024-0.97-0.037-1.532-0.037-9.697 0-18.505 3.806-25.012 10.005-6.323 6.297-10.246 15.030-10.246 24.679 0 0.419 0.007 0.836 0.022 1.251zM634.596 202.383c-7.997-7.843-18.963-12.683-31.060-12.683-0.531 0-1.059 0.009-1.585 0.028-0.062-0.004-0.226-0.004-0.39-0.004-8.542 0-16.566 2.215-23.531 6.101-7.024 3.914-12.754 9.965-16.292 17.275-3.591 6.843-5.641 14.676-5.649 22.988-0.010 0.346-0.015 0.75-0.015 1.155 0 24.193 19.612 43.804 43.804 43.804 0.405 0 0.81-0.006 1.212-0.016 0.353 0.015 0.839 0.022 1.326 0.022 12.366 0 23.576-4.947 31.76-12.971 8.17-8.003 13.24-19.159 13.24-31.499 0-0.474-0.007-0.946-0.022-1.416 0.032-0.54 0.050-1.254 0.050-1.972 0-12.12-4.97-23.078-12.984-30.949zM824.889 768h-156.444v64c0 15.709-12.735 28.444-28.444 28.444s-28.444-12.735-28.444-28.444v-64h-199.111v64c0 15.709-12.735 28.444-28.444 28.444s-28.444-12.735-28.444-28.444v-64h-154.169c-34.293-0.081-62.070-27.859-62.151-62.143v-623.652c0.081-34.293 27.859-62.070 62.143-62.151h623.51c34.293 0.081 62.070 27.859 62.151 62.143v624.079c-0.321 34.109-28.007 61.645-62.144 61.724zM201.387 725.334h154.169v-67.982c0-15.709 12.735-28.444 28.444-28.444s28.444 12.735 28.444 28.444v67.982h199.111v-67.982c0-15.709 12.735-28.444 28.444-28.444s28.444 12.735 28.444 28.444v67.982h156.444c10.729-0.080 19.405-8.756 19.484-19.477v-129.572h-662.471v129.991c0.315 10.545 8.902 18.983 19.477 19.058zM824.889 62.72h-623.502c-10.729 0.080-19.405 8.756-19.484 19.477v451.705h662.329v-451.698c-0.079-10.679-8.675-19.325-19.327-19.484z" />
<glyph unicode="&#xe920;" glyph-name="m_device-monitor" d="M659.058 54.045h-300.516v42.667h129.849v69.262h-361.813c-11.782 0-21.333 9.551-21.333 21.333v585.813c0 11.782 9.551 21.333 21.333 21.333h768c0 0 0 0 0 0 11.782 0 21.333-9.551 21.333-21.333v-585.813c0-11.782-9.551-21.333-21.333-21.333h-363.52v-69.262h128v-42.667zM509.724 208.64h363.52v543.147h-725.333v-543.147h361.813z" />
<glyph unicode="&#xe921;" glyph-name="m_device-mobile" d="M640.996 25.6h-258.987c-67.754 0.081-122.657 54.984-122.738 122.73v559.51c0.081 67.754 54.984 122.657 122.73 122.738h258.994c67.754-0.081 122.657-54.984 122.738-122.73v-559.51c-0.081-67.754-54.984-122.657-122.73-122.738zM382.009 787.911c-44.19-0.081-79.99-35.882-80.071-80.063v-559.51c0.081-44.19 35.882-79.99 80.063-80.071h258.994c44.19 0.081 79.99 35.882 80.071 80.063v559.51c-0.081 44.19-35.882 79.99-80.063 80.071h-258.994zM467.342 734.578h88.32v-21.333h-88.32v21.333zM535.324 140.089c0-13.746-11.143-24.889-24.889-24.889s-24.889 11.143-24.889 24.889c0 13.746 11.143 24.889 24.889 24.889s24.889-11.143 24.889-24.889z" />
<glyph unicode="&#xe922;" glyph-name="m_admin" d="M899.84 807.965h-768c-11.782 0-21.333-9.551-21.333-21.333v-604.871c0-11.782 9.551-21.333 21.333-21.333h361.671v-90.738h-129.849c-11.782 0-21.333-9.551-21.333-21.333s9.551-21.333 21.333-21.333h300.516c11.782 0 21.333 9.551 21.333 21.333s-9.551 21.333-21.333 21.333h-128v90.738h363.662c11.782 0 21.333 9.551 21.333 21.333v604.871c0 11.782-9.551 21.333-21.333 21.333zM465.493 419.983c-0.899 8.028-4.716 15.028-10.35 20.025-4.203 3.258-6.863 8.266-6.863 13.896 0 0.125 0.001 0.249 0.004 0.373-0.842 7.192-4.785 13.34-10.439 17.136-1.862 1.428-3.405 2.972-4.735 4.689-5.463 7.097-9.022 15.825-9.844 25.335-0.023 0.484-0.030 0.84-0.030 1.197 0 2.774 0.369 5.462 1.062 8.017 1.238 4.873 1.977 10.714 1.977 16.727 0 0.794-0.013 1.586-0.038 2.374l0.003 2.445c-0.004 0.486-0.006 1.060-0.006 1.634 0 21.489 3.278 42.213 9.361 61.698 3.68 11.884 11.719 23.007 22.333 30.841 1.645 1.435 3.6 2.238 5.743 2.238 0.749 0 1.475-0.098 2.166-0.282 3.733-0.308 8.147-0.492 12.604-0.492 15.289 0 30.075 2.158 44.068 6.186 0.733-0.124 2.895-0.037 5.077-0.037 20.208 0 38.67-7.472 52.774-19.805 9.901-6.399 17.171-16.357 20.036-28.044 0.009-2.143-0.024-4.287-0.024-6.439 0-14.7 1.535-29.041 4.453-42.873-0.238-1.496 1.042-4.483 1.611-8.892 0.618-5.274 2.023-10.081 4.103-14.507 0.664-1.424 1.122-3.423 1.122-5.529 0-0.608-0.038-1.206-0.112-1.794-0.908-11.387-4.438-21.854-9.982-30.96-5.2-7.834-9.289-17.358-11.526-27.576-0.1-0.656-0.098-0.772-0.098-0.888 0-4.467-2.511-8.347-6.199-10.306-7.52-4.279-12.595-11.959-13.144-20.864-0.004-8.18 5.97-55.54 21.33-67.060 16.030-10.048 34.503-18.601 54.054-24.716 30.286-10.38 54.143-20.754 77.079-32.657 3.344-1.971 7.678-8.681 7.678-16.404 0-0.113-0.001-0.226-0.003-0.338 0-4.392 1.707-36.819 2.845-71.094h-440.036c0.996 34.844 2.133 67.129 2.702 71.111v2.276c0.054 7.17 4.379 13.316 10.553 16.027 22.691 11.892 49.151 22.633 76.713 30.807 24.758 6.318 43.699 14.315 61.062 24.681 14.231 11.117 21.911 59.614 20.916 71.845zM877.938 203.094h-116.764c-0.853 29.44-2.276 70.258-3.271 76.658-1.407 16.604-11.188 30.642-25.059 37.991-21.117 11.165-46.194 22.113-72.11 31.288-22.49 7.166-38.347 14.251-53.245 22.818-4.036 11.399-7.761 25.368-9.253 39.998l0.662 0.599c10.435 6.507 17.516 17.552 18.481 30.304 1.78 6.508 4.308 12.087 7.553 17.163 8.109 13.012 13.3 28.955 14.066 46.049 0.126 1.38 0.194 2.74 0.194 4.117 0 5.835-1.22 11.384-3.419 16.408-0.783 1.561-1.39 3.683-1.598 5.921-0.717 5.335-1.57 8.891-2.281 12.304-2.248 10.817-3.534 23.247-3.534 35.978 0 2.352 0.044 4.694 0.131 7.025-2.84 20.428-14.442 38.024-30.894 48.852-20.032 15.665-53.596 31.594-82.894 25.051-11.052-3.295-23.752-5.192-36.895-5.192-3.432 0-6.835 0.129-10.202 0.383-1.13 0.229-2.949 0.376-4.802 0.376-7.655 0-14.727-2.499-20.444-6.727-16.871-11.761-29.409-28.913-35.164-48.936-6.389-20.596-9.979-43.548-9.979-67.339 0-0.749 0.004-1.497 0.011-2.245l-0.001-2.873c0.037-0.681 0.059-1.479 0.059-2.281 0-3.631-0.436-7.16-1.259-10.538-1.033-3.912-1.663-8.753-1.663-13.74 0-0.513 0.007-1.024 0.020-1.534 0.633-15.48 5.869-29.697 14.371-41.387 2.74-3.869 6.073-7.382 9.842-10.369l0.105-0.080c1.217-11.307 6.438-21.208 14.194-28.419l2.73-2.444c-0.219-17.221-3.487-33.614-9.286-48.754-13.528-6.581-29.602-13.045-46.464-17.588-34.409-9.915-62.711-21.432-89.499-35.447-11.387-5.83-21.079-19.599-22.28-35.732l-0.009-1.999c-0.853-5.831-2.276-46.507-3.129-75.804h-111.929v562.347h725.333v-562.204z" />
<glyph unicode="&#xe923;" glyph-name="m_support" d="M899.129 544.569c-4.267 3.271-10.524 7.964-13.369 10.809-23.751 171.804-179.058 296.533-371.342 297.956h-3.84c-192.142-1.422-347.449-126.009-371.342-297.813-2.987-2.844-9.244-7.538-14.222-10.809-19.342-14.222-43.52-32.142-43.52-58.596v-167.964c0.003-3.339 0.79-6.532 2.189-9.369 13.598-27.039 54.984-93.742 158.095-138.115 0.019-2.606 1.379-7.066 3.629-10.945 53.508-93.611 152.891-155.772 266.791-155.772 137.703 0 254.185 90.855 292.772 215.889l3.706 2.17c52.196 6.827 98.276 39.111 130.133 91.733 1.956 3.146 3.123 6.983 3.129 11.092v161.282c-0.569 25.884-24.036 44.089-42.809 58.453zM899.129 331.236c-11.889-25.974-44.041-53.334-83.080-64.056 0.997 11.099 2.427 27.11 2.581 43.427l0.001 150.621c0.045 1.965 0.071 4.28 0.071 6.602 0 169.269-137.22 306.489-306.489 306.489s-306.489-137.22-306.489-306.489c0-2.321 0.026-4.637 0.077-6.946l-0.006-133.772c0-15.709 12.735-28.444 28.444-28.444s28.444 12.735 28.444 28.444v134.116c-0.045 1.774-0.071 3.863-0.071 5.958 0 137.85 111.75 249.6 249.6 249.6s249.6-111.75 249.6-249.6c0-2.095-0.026-4.184-0.077-6.266l0.006-150.163c-0.105-137.693-111.751-249.274-249.458-249.274-73.368 0-139.338 31.673-184.984 82.092 42.77-9.383 92.11-14.881 142.735-14.881 1.753 0 3.505 0.007 5.255 0.020 11.513-0.002 21.065 9.55 21.065 21.332s-9.551 21.333-21.333 21.333c-247.467 0-328.96 111.076-350.293 151.751v162.844c-2.282 0.029 10.172 14.414 25.787 24.238 15.6 11.46 28.826 21.131 30.533 36.206 19.484 152.604 158.72 264.249 330.951 264.249s312.889-111.644 331.947-264.391c1.849-14.222 14.222-24.604 29.44-35.698 0.276 2.042 14.941-9.435 25.267-24.175l0.191-155.167z" />
<glyph unicode="&#xe924;" glyph-name="m_file" d="M779.947 21.476h-526.222c-27.105 0.401-48.924 22.468-48.924 49.63 0 0.002 0 0.004 0 0.005v707.129c0.081 27.302 22.191 49.413 49.486 49.493h360.968c0.028 0 0.061 0 0.094 0 12.933 0 24.703-4.974 33.503-13.114l164.661-151.579c9.789-9.098 15.902-22.037 15.929-36.404v-555.525c0 0 0 0 0 0 0-27.363-22.142-49.554-49.486-49.635zM253.724 785.067c0 0 0 0 0 0-3.77 0-6.827-3.056-6.827-6.827 0 0 0 0 0 0v-707.129c-0.001-0.042-0.001-0.092-0.001-0.142 0-3.77 3.056-6.827 6.827-6.827 0.001 0 0.001 0 0.002 0h526.222c0 0 0.001 0 0.001 0 3.77 0 6.827 3.056 6.827 6.827 0 0.050-0.001 0.1-0.002 0.15v555.37c-0.009 2.027-0.883 3.848-2.27 5.115l-164.699 151.756c-1.218 1.145-2.863 1.849-4.672 1.849-0.008 0-0.015 0-0.023 0h-360.817z" />
<glyph unicode="&#xe925;" glyph-name="m_doc" d="M640.853 515.698h-255.147c-15.709 0-28.444 12.735-28.444 28.444s12.735 28.444 28.444 28.444h255.147c15.709 0 28.444-12.735 28.444-28.444s-12.735-28.444-28.444-28.444zM640.853 368.356h-255.147c-15.709 0-28.444 12.735-28.444 28.444s12.735 28.444 28.444 28.444h255.147c15.709 0 28.444-12.735 28.444-28.444s-12.735-28.444-28.444-28.444zM640.853 221.014h-255.147c-15.709 0-28.444 12.735-28.444 28.444s12.735 28.444 28.444 28.444h255.147c15.709 0 28.444-12.735 28.444-28.444s-12.735-28.444-28.444-28.444zM778.24 21.476h-526.222c-27.105 0.401-48.924 22.468-48.924 49.63 0 0.002 0 0.004 0 0.005v707.129c0.081 27.352 22.272 49.493 49.635 49.493 0 0 0 0 0 0h360.818c0.011 0 0.025 0 0.039 0 12.95 0 24.739-4.974 33.56-13.115l164.66-151.578c9.789-9.098 15.902-22.037 15.929-36.404v-555.525c0 0 0 0 0 0 0-27.363-22.142-49.554-49.486-49.635zM252.018 785.067c0 0 0 0 0 0-3.77 0-6.827-3.056-6.827-6.827 0 0 0 0 0 0v-707.129c-0.001-0.042-0.001-0.092-0.001-0.142 0-3.77 3.056-6.827 6.827-6.827 0.001 0 0.001 0 0.002 0h526.222c0 0 0.001 0 0.001 0 3.77 0 6.827 3.056 6.827 6.827 0 0.050-0.001 0.1-0.002 0.15v555.37c-0.16 2.108-1.235 3.937-2.825 5.106l-164.144 151.765c-1.218 1.145-2.863 1.849-4.672 1.849-0.008 0-0.015 0-0.023 0h-360.674z" />
<glyph unicode="&#xe926;" glyph-name="m_email" d="M858.311 738.703h-685.227c-37.547 0-68.124-30.578-68.124-68.124v-489.529c0-37.547 30.578-68.124 68.124-68.124h685.227c37.547 0 68.124 30.578 68.124 68.124v489.529c0 37.547-30.578 68.124-68.124 68.124zM871.964 181.049c0-7.396-6.258-13.653-13.653-13.653h-685.227c-7.396 0-13.653 6.258-13.653 13.653v398.364l352.427-298.667 359.964 298.667v-398.364zM871.964 637.014l-359.964-298.667-352.427 298.667v33.564c0 7.396 6.258 13.653 13.653 13.653h685.227c7.396 0 13.653-6.258 13.653-13.653v-33.564z" />
<glyph unicode="&#xe927;" glyph-name="m_export-to-doc" d="M627.2 630.187h-255.289c-15.709 0-28.444-12.735-28.444-28.444s12.735-28.444 28.444-28.444h255.289c15.709 0 28.444 12.735 28.444 28.444s-12.735 28.444-28.444 28.444zM627.2 500.765h-255.289c-15.709 0-28.444-12.735-28.444-28.444s12.735-28.444 28.444-28.444h255.289c15.709 0 28.444 12.735 28.444 28.444s-12.735 28.444-28.444 28.444zM798.151 638.294l-164.836 151.751c-8.787 8.111-20.576 13.084-33.526 13.084-0.014 0-0.027 0-0.041 0h-360.816c-27.252-0.080-49.332-22.11-49.493-49.336v-607.162c0 0 0 0 0 0 0-27.363 22.142-49.554 49.486-49.635h239.51v-103.111h45.511v103.111h240.64c27.352 0.081 49.493 22.272 49.493 49.635 0 0 0 0 0 0v455.111c0 0.034 0 0.075 0 0.115 0 14.385-6.119 27.341-15.897 36.406zM771.413 146.631c0.001-0.042 0.001-0.092 0.001-0.142 0-3.77-3.056-6.827-6.827-6.827-0.001 0-0.001 0-0.002 0h-240.64v168.107l112.782-112.782 31.716 32.569-167.822 167.822-170.667-170.667 32.142-32.142 115.342 115.342v-168.249h-238.507c0 0-0.001 0-0.001 0-3.77 0-6.827 3.056-6.827 6.827 0 0.050 0.001 0.1 0.002 0.15v607.139c0 3.77 3.056 6.827 6.827 6.827 0 0 0 0 0 0h360.818c0.006 0 0.014 0 0.022 0 1.809 0 3.454-0.704 4.675-1.852l164.69-151.89c1.393-1.272 2.266-3.093 2.276-5.118v-455.113z" />
<glyph unicode="&#xe928;" glyph-name="m_fingerprint" d="M736.284 86.614c-15.692 0.023-28.404 12.749-28.404 28.444 0 9.442 4.601 17.81 11.683 22.984 90.481 65.882 148.568 171.36 148.568 290.405 0 62.517-16.019 121.292-44.177 172.445-0.459 1.39-1.269 5.163-1.269 9.126 0 15.709 12.735 28.444 28.444 28.444 9.837 0 18.507-4.993 23.615-12.583 31.58-57.222 50.125-125.312 50.125-197.734 0-137.983-67.317-260.243-170.901-335.731-5.683-3.941-11.256-5.804-17.265-5.804-0.147 0-0.294 0.001-0.441 0.003zM510.293 14.223c-0.236 0-0.515-0.001-0.794-0.001-83.608 0-161.455 24.665-226.662 67.115-5.375 4.261-9.844 12.523-9.844 21.829 0 15.709 12.735 28.444 28.444 28.444 5.093 0 9.874-1.339 14.009-3.683 54.895-35.989 122.323-57.446 194.762-57.446 33.318 0 65.576 4.539 96.189 13.033 0.655 0.736 4.348 1.51 8.222 1.51 15.709 0 28.444-12.735 28.444-28.444 0-14.232-10.452-26.022-24.098-28.115-32.363-9.052-69.345-14.244-107.54-14.244-0.399 0-0.798 0.001-1.196 0.002zM787.769 668.445c-0.008 0-0.018 0-0.028 0-8.025 0-15.273 3.323-20.444 8.668-64.785 67.213-155.587 108.951-256.137 108.951-0.355 0-0.709-0.001-1.063-0.002-15.655 0-28.39 12.735-28.39 28.445s12.735 28.444 28.444 28.444c0.61 0.003 1.331 0.005 2.053 0.005 116.468 0 221.634-48.392 296.488-126.167 5.074-5.243 8.125-12.219 8.125-19.907 0-15.709-12.735-28.444-28.444-28.444-0.212 0-0.424 0.002-0.635 0.007zM135.964 496.64c-0.015 0-0.032 0-0.050 0-15.709 0-28.444 12.735-28.444 28.444 0 2.527 0.33 4.977 0.948 7.31 27.062 128.52 134.925 246.278 275.33 291.669 5.484 1.642 8.395 2.113 11.416 2.113 15.714 0 28.452-12.738 28.452-28.452 0-12.693-8.311-23.444-19.788-27.109-109.257-28.909-206.675-126.373-239.84-250.124-3.829-14.847-14.873-23.808-28.018-23.852zM190.862 182.329c-9.703 0.001-18.272 4.86-23.405 12.279-35.129 45.628-64.87 120.639-70.949 202.241-0.13 1.99-0.157 2.71-0.157 3.435 0 15.751 12.768 28.519 28.519 28.519 15.025 0 27.336-11.619 28.439-26.362 1.247-55.459 24.068-121.306 61.801-176.088 2.643-3.439 4.699-9.272 4.699-15.585 0-15.709-12.735-28.444-28.444-28.444-0.177 0-0.354 0.002-0.53 0.005zM336.64 185.885c-6.801 0.006-13.069 2.42-17.97 6.44-68.83 56.074-112.469 140.894-112.469 235.907 0 167.698 135.946 303.644 303.644 303.644 0.057 0 0.115 0 0.172 0 15.701 0 28.436-12.735 28.436-28.444s-12.735-28.444-28.444-28.444c-0.082 0-0.179 0-0.275 0-136.279 0-246.756-110.476-246.756-246.756 0-77.277 35.523-146.257 91.13-191.502 6.862-5.613 10.921-13.533 10.921-22.401 0-15.69-12.703-28.413-28.386-28.444zM594.347 137.529c-15.621 0.116-28.24 12.806-28.24 28.444 0 12.534 8.107 23.175 19.364 26.964 20.37 0.825 68.94 28.033 105.167 66.898 5.349 5.732 12.754 9.212 20.972 9.212 15.728 0 28.478-12.75 28.478-28.478 0-7.51-2.907-14.342-7.658-19.43-9.559-19.425-63.787-60.711-127.253-81.713-4.678-1.43-7.581-1.898-10.594-1.898-0.083 0-0.166 0-0.248 0.001zM765.013 295.68c0 0 0 0 0 0-15.709 0-28.444 12.735-28.444 28.444 0 3.898 0.784 7.613 2.203 10.996 11.456 27.365 18.152 59.38 18.152 92.959 0 95.176-53.792 177.789-132.631 219.094-10.607 5.476-16.811 14.996-16.811 25.964 0 15.72 12.744 28.464 28.464 28.464 4.752 0 9.232-1.164 13.17-3.224 98.602-51.503 164.856-153.183 164.856-270.336 0-41.524-8.323-81.103-23.392-117.162-3.726-8.199-13.739-15.202-25.387-15.202-0.063 0-0.126 0-0.189 0.001zM611.556 262.827c-0.029 0-0.063 0-0.097 0-15.709 0-28.444 12.735-28.444 28.444 0 9.191 4.359 17.364 11.123 22.564 33.079 25.542 54.133 65.132 54.133 109.638 0 22.916-5.582 44.529-15.46 63.552-3.542 4.062-5.905 10.278-5.905 17.045 0 15.709 12.735 28.444 28.444 28.444 12.884 0 23.767-8.566 27.265-20.313 13.542-26.022 21.457-56.598 21.457-89.023 0-62.636-29.534-118.375-75.436-154.049-4.695-3.78-10.598-6.111-17.039-6.302zM405.333 524.516c-15.685 0.032-28.389 12.755-28.389 28.444 0 8.868 4.058 16.788 10.419 22.005 33.264 27.029 76.112 43.398 122.783 43.418 0.358 0.002 0.777 0.004 1.195 0.004 31.334 0 60.926-7.462 87.094-20.706 8.758-4.103 15.469-13.939 15.469-25.342 0-15.709-12.735-28.444-28.444-28.444-4.923 0-9.554 1.251-13.592 3.451-17.706 8.94-38.771 14.219-61.069 14.219-33.075 0-63.437-11.616-87.23-30.99-4.577-3.704-10.791-6.067-17.558-6.067-0.239 0-0.477 0.003-0.714 0.009zM470.613 135.396c-15.709 0-28.444 12.735-28.444 28.444 0 33.564-14.222 78.222-42.667 98.702-50.589 35.383-84.22 94.147-85.331 160.825-0.003 0.324-0.003 0.505-0.003 0.685 0 27.187 5.597 53.066 15.701 76.55 3.958 9.049 14.030 16.135 25.758 16.135 15.734 0 28.489-12.755 28.489-28.489 0-4.006-0.827-7.82-2.32-11.278-6.763-15.563-10.738-33.904-10.738-53.173 0-0.091 0-0.183 0-0.274 0.684-46.79 24.795-89.121 61.408-114.88 45.543-33.728 65.597-96.875 65.597-144.662 0-0.047 0-0.104 0-0.16 0-15.359-12.174-27.876-27.399-28.426zM524.089 295.68c-12.088 0.204-22.409 8.077-26.25 19.001 53.751-58.661 12.688-6.436-37.684 34.852l-9.026 7.729c-19.039 16.596-31.003 40.89-31.003 67.978 0 49.72 40.306 90.027 90.027 90.027s90.027-40.306 90.027-90.027c0-0.198-0.001-0.397-0.002-0.595 0-15.679-12.735-28.414-28.444-28.414s-28.444 12.735-28.444 28.444c-0.012 18.292-14.844 33.117-33.138 33.117-18.301 0-33.138-14.836-33.138-33.138 0-9.889 4.331-18.765 11.2-24.837l7.431-6.288c43.378-36.836 56.889-51.2 56.889-69.404 0-15.709-12.735-28.444-28.444-28.444 0 0 0 0 0 0zM495.644 324.125v0z" />
<glyph unicode="&#xe929;" glyph-name="m_bookmark" d="M667.022 43.947c-0.038 0-0.083 0-0.128 0-11.361 0-21.685 4.441-29.331 11.681l-117.74 112.337c-4.431 4.046-10.353 6.524-16.853 6.524s-12.423-2.478-16.873-6.541l-117.741-112.338c-7.639-7.28-18.004-11.76-29.415-11.76-6.128 0-11.955 1.292-17.223 3.619-14.628 6.152-24.902 20.626-24.902 37.499 0 0.129 0.001 0.258 0.002 0.387v648.514c0.715 37.151 31 66.994 68.255 66.994 0.354 0 0.708-0.003 1.061-0.008l273.867 0.001c0.3 0.005 0.653 0.007 1.007 0.007 37.255 0 67.54-29.843 68.254-66.927l0.001-648.6c0-0.025 0-0.054 0-0.083 0-16.873-10.273-31.346-24.906-37.506-5.284-2.394-11.145-3.751-17.318-3.798zM503.040 217.031c0.199 0.002 0.435 0.003 0.671 0.003 17.621 0 33.649-6.818 45.59-17.96l-0.039 0.036 117.333-111.929v646.684c-0.69 13.586-11.873 24.341-25.569 24.341-0.361 0-0.72-0.007-1.078-0.022l-273.869 0.002c-0.306 0.013-0.666 0.021-1.027 0.021-13.696 0-24.879-10.755-25.567-24.279l-0.002-646.604 117.333 111.787c11.922 11.106 27.968 17.923 45.607 17.923 0.216 0 0.433-0.001 0.649-0.003z" />
<glyph unicode="&#xe92a;" glyph-name="m_card" d="M846.222 732.445h-670.862c-37.781 0-68.409-30.628-68.409-68.409v-477.298c0-37.781 30.628-68.409 68.409-68.409 0 0 0 0 0 0h670.862c0 0 0 0 0 0 37.781 0 68.409 30.628 68.409 68.409 0 0 0 0 0 0v477.298c0 37.781-30.628 68.409-68.409 68.409 0 0 0 0 0 0zM175.36 689.778h670.862c0 0 0 0 0 0 14.217 0 25.742-11.525 25.742-25.742v-52.48h-722.204v52.622c0.080 14.106 11.494 25.52 25.592 25.6zM846.222 160.996h-670.862c-14.217 0-25.742 11.525-25.742 25.742 0 0 0 0 0 0v311.040h722.347v-311.040c0-14.217-11.525-25.742-25.742-25.742 0 0 0 0 0 0z" />
<glyph unicode="&#xe92b;" glyph-name="m_home" d="M830.293 23.467h-633.173c-49.551 1.715-89.068 42.297-89.068 92.108 0 0.918 0.013 1.834 0.040 2.746l-0.003 365.235c-0.006 0.411-0.010 0.896-0.010 1.381 0 29.609 13.189 56.137 34.014 74.030l317.285 259.238c14.638 12.154 33.622 19.529 54.329 19.529s39.691-7.375 54.469-19.643l316.446-259.016c21.367-18.017 34.848-44.802 34.848-74.736 0-0.276-0.001-0.551-0.003-0.827v-365.327c0.023-0.777 0.037-1.69 0.037-2.607 0-49.861-39.597-90.474-89.060-92.109zM513.707 795.165c-10.427-0.022-19.972-3.781-27.371-10.009l-316.522-258.934c-11.705-10.051-19.072-24.865-19.072-41.401 0-0.445 0.005-0.889 0.016-1.331l-0.001-365.303c-0.045-0.793-0.071-1.721-0.071-2.655 0-26.259 20.449-47.741 46.291-49.391l633.318-0.007c25.987 1.658 46.436 23.14 46.436 49.399 0 0.934-0.026 1.862-0.077 2.783l0.006 365.241c0.009 0.377 0.015 0.821 0.015 1.266 0 16.536-7.368 31.35-19 41.34l-317.228 258.905c-7.177 6.107-16.496 9.891-26.694 10.097zM663.751 44.8h-42.667v186.169h-215.040v-186.311h-42.667v207.644c0 11.782 9.551 21.333 21.333 21.333h257.707c11.782 0 21.333-9.551 21.333-21.333v-207.644z" />
<glyph unicode="&#xe92c;" glyph-name="m_folder-new" d="M385.28 450.276h255.147v-56.889h-255.147v56.889zM484.409 549.405h56.889v-255.147h-56.889v255.147zM876.942 113.778h-723.2c-26.225 0.32-47.362 21.654-47.362 47.926 0 0.151 0.001 0.302 0.002 0.453v566.164c-0.001 0.128-0.002 0.279-0.002 0.43 0 26.271 21.137 47.605 47.332 47.925h216.777c15.712-0.081 29.604-7.8 38.162-19.63l33.375-45.934c0.776-1.171 2.071-1.945 3.549-1.991h431.367c26.289-0.239 47.508-21.605 47.508-47.927 0-0.251-0.002-0.501-0.006-0.751v-497.74c0.007-0.297 0.010-0.647 0.010-0.997 0-26.324-21.222-47.691-47.49-47.927zM153.742 734.009c-2.668-0.359-4.703-2.621-4.703-5.359 0-0.116 0.004-0.231 0.011-0.346l-0.001-565.887c-0.006-0.099-0.010-0.214-0.010-0.33 0-2.738 2.036-5 4.676-5.356l723.228-0.003c2.734 0.293 4.845 2.588 4.845 5.375 0 0.11-0.003 0.22-0.010 0.328l0.001 497.763c0.006 0.094 0.009 0.203 0.009 0.314 0 2.788-2.111 5.082-4.821 5.373l-431.384 0.002c-15.718 0.056-29.619 7.782-38.162 19.63l-33.376 46.219c-0.791 1.155-2.077 1.921-3.545 1.991h-216.757z" />
<glyph unicode="&#xe92d;" glyph-name="m_folder" d="M879.502 113.778h-723.058c-26.287 0.24-47.504 21.606-47.504 47.927 0 0.151 0.001 0.301 0.002 0.452v566.164c-0.001 0.127-0.002 0.278-0.002 0.429 0 26.321 21.217 47.687 47.481 47.927h216.627c15.712-0.081 29.604-7.8 38.162-19.63l33.375-45.934c0.791-1.155 2.077-1.921 3.545-1.991h431.37c26.287-0.24 47.504-21.606 47.504-47.927 0-0.151-0.001-0.301-0.002-0.452v-497.755c0.011-0.382 0.017-0.831 0.017-1.282 0-26.326-21.226-47.695-47.497-47.927zM156.444 734.009c-2.734-0.293-4.845-2.588-4.845-5.375 0-0.11 0.003-0.22 0.010-0.328l-0.001-565.887c-0.021-0.179-0.033-0.386-0.033-0.596 0-2.796 2.123-5.096 4.845-5.376l723.081-0.002c2.734 0.293 4.845 2.588 4.845 5.375 0 0.11-0.003 0.22-0.010 0.328l0.001 497.763c0.006 0.094 0.009 0.203 0.009 0.314 0 2.788-2.111 5.082-4.821 5.373l-431.384 0.002c-15.718 0.056-29.619 7.782-38.162 19.63l-33.376 46.219c-0.791 1.155-2.077 1.921-3.545 1.991h-216.615z" />
<glyph unicode="&#xe92e;" glyph-name="m_lock" d="M842.382 448.996c-32.592 18.811-70.313 35.161-109.951 47.083l-3.826 126.997c0 119.156-96.595 215.751-215.751 215.751s-215.751-96.595-215.751-215.751v-126.009c-42.894-12.757-80.094-28.815-114.885-48.618-3.811-2.327-8.112-9.203-8.138-17.085v-316.59c0.026-7.886 4.327-14.762 10.705-18.434 87.712-49.975 204.192-77.566 328.21-77.566s241.778 28.444 329.671 78.364c6.422 3.757 10.667 10.62 10.667 18.475 0 0.005 0 0.010 0 0.014v314.879c-0.057 7.913-4.412 14.795-10.845 18.434zM339.627 623.076c0 95.592 77.493 173.084 173.084 173.084s173.084-77.493 173.084-173.084v-114.916c-52.013 12.128-111.737 19.080-173.084 19.080s-121.071-6.952-178.426-20.112l5.342 115.947zM810.667 128c-80.213-42.667-184.889-66.702-297.671-66.702s-216.462 24.036-296.391 66.702v290.702c80.071 42.667 184.889 65.991 296.107 65.991s217.458-23.751 297.956-66.844v-289.849z" />
<glyph unicode="&#xe92f;" glyph-name="m_unlock" d="M842.382 448.996c-87.751 50.489-204.942 78.364-329.671 78.364-0.569 0.002-1.244 0.002-1.918 0.002-60.678 0-119.733-6.945-176.415-20.085l5.248 115.94c0 95.592 77.493 173.084 173.084 173.084s173.084-77.493 173.084-173.084h42.667c0 119.156-96.595 215.751-215.751 215.751s-215.751-96.595-215.751-215.751v-125.44c-42.848-12.966-79.986-29.205-114.7-49.181-3.853-2.332-8.154-9.208-8.18-17.090v-316.59c0.026-7.886 4.327-14.762 10.705-18.434 87.712-49.975 204.192-77.566 328.21-77.566s241.778 28.444 329.671 78.364c6.422 3.757 10.667 10.62 10.667 18.475 0 0.005 0 0.010 0 0.014v314.737c-0.057 7.913-4.412 14.795-10.845 18.434zM810.667 128c-80.213-42.667-184.889-66.702-297.671-66.702s-216.462 24.036-296.391 66.702v290.844c80.071 42.667 184.889 65.991 296.107 65.991s217.458-23.751 297.956-66.844v-289.991z" />
<glyph unicode="&#xe930;" glyph-name="m_password" d="M902.4 117.476h-500.48c-168.975 3.727-304.53 141.589-304.53 311.111s135.555 307.384 304.183 311.105l0.347 0.006h500.48v-56.889h-500.48c-134.827 0-248.747-116.48-248.747-254.151s113.778-254.151 248.747-254.151h500.48zM456.676 428.516c0-36.603-29.673-66.276-66.276-66.276s-66.276 29.673-66.276 66.276c0 36.603 29.673 66.276 66.276 66.276s66.276-29.673 66.276-66.276zM899.413 428.516c0-36.603-29.673-66.276-66.276-66.276s-66.276 29.673-66.276 66.276c0 36.603 29.673 66.276 66.276 66.276s66.276-29.673 66.276-66.276zM676.978 428.516c0-36.603-29.673-66.276-66.276-66.276s-66.276 29.673-66.276 66.276c0 36.603 29.673 66.276 66.276 66.276s66.276-29.673 66.276-66.276z" />
<glyph unicode="&#xe931;" glyph-name="m_report" d="M481.849 489.103h71.111v-264.676h-71.111v264.676zM352.996 555.805h71.111v-331.52h-71.111v331.52zM610.844 427.378h71.111v-206.507h-71.111v206.507zM776.391 21.476h-526.222c-27.043 0.48-48.782 22.515-48.782 49.628 0 0.003 0 0.005 0 0.008v707.128c0.081 27.302 22.191 49.413 49.486 49.493h360.683c0.028 0 0.061 0 0.094 0 12.933 0 24.703-4.974 33.503-13.114l165.514-151.579c9.789-9.098 15.902-22.037 15.929-36.404v-555.525c0-0.001 0-0.002 0-0.003 0-27.413-22.223-49.636-49.636-49.636-0.2 0-0.4 0.001-0.599 0.004zM250.169 785.067c0 0 0 0 0 0-3.77 0-6.827-3.056-6.827-6.827 0 0 0 0 0 0v-707.129c-0.001-0.042-0.001-0.092-0.001-0.142 0-3.77 3.056-6.827 6.827-6.827 0.001 0 0.001 0 0.002 0h526.222c0.043-0.001 0.093-0.002 0.144-0.002 3.77 0 6.827 3.056 6.827 6.827 0 0.051-0.001 0.101-0.002 0.151v555.37c-0.009 2.027-0.883 3.848-2.27 5.115l-164.699 151.756c-1.198 1.064-2.785 1.714-4.523 1.714-0.11 0-0.219-0.003-0.327-0.008l-360.66 0.001z" />
<glyph unicode="&#xe932;" glyph-name="m_image" d="M758.329 242.631l-131.84 162.844c-3.942 4.937-9.96 8.072-16.711 8.072s-12.769-3.136-16.678-8.030l-18.095-22.656c-4.652-5.81-11.744-9.499-19.698-9.499s-15.046 3.689-19.659 9.449l-65.319 80.69c-5.414 6.794-13.687 11.11-22.969 11.11s-17.555-4.316-22.923-11.051l-170.712-213.393c-2.895-3.541-4.649-8.112-4.649-13.094 0-11.252 8.95-20.414 20.119-20.755l476.618-0.001c8.708 0.679 15.516 7.911 15.516 16.734 0 3.583-1.123 6.904-3.036 9.63zM761.742 573.44c0.22-1.849 0.346-3.991 0.346-6.162 0-30.398-24.642-55.040-55.040-55.040s-55.040 24.642-55.040 55.040c0 28.121 21.089 51.316 48.314 54.633 2.091 0.24 4.207 0.361 6.352 0.361 28.295 0 51.642-21.187 55.041-48.562zM860.302 61.156h-702.578c-27.352 0.081-49.493 22.272-49.493 49.635 0 0 0 0 0 0v631.893c0.081 27.302 22.191 49.413 49.486 49.493h702.586c0.085 0.001 0.185 0.001 0.285 0.001 27.363 0 49.555-22.142 49.635-49.486v-631.901c0 0 0-0.001 0-0.001 0-27.413-22.223-49.636-49.636-49.636-0.1 0-0.2 0-0.3 0.001zM157.724 749.654c0 0 0 0 0 0-3.77 0-6.827-3.056-6.827-6.827 0 0 0 0 0 0v-632.036c-0.001-0.042-0.001-0.092-0.001-0.142 0-3.77 3.056-6.827 6.827-6.827 0.001 0 0.001 0 0.002 0h702.578c0.128-0.009 0.278-0.013 0.428-0.013 3.77 0 6.827 3.056 6.827 6.827 0 0.055-0.001 0.109-0.002 0.164v631.885c0 3.77-3.056 6.827-6.827 6.827h-703.004z" />
<glyph unicode="&#xe933;" glyph-name="m_select" d="M385.849 42.525h-259.413v259.698h56.889v-202.809h202.524zM183.324 554.809h-56.889v259.698h259.413v-56.889h-202.524zM894.436 42.525h-259.271v56.889h202.382v202.809h56.889zM894.436 554.809h-56.889v202.809h-202.382v56.889h259.271z" />
<glyph unicode="&#xe934;" glyph-name="m_size-expand" d="M794.738 398.791h-56.889v256.284h-256v56.889h312.889zM536.178 140.8h-312.889v313.173h56.889v-256.284h256z" />
<glyph unicode="&#xe935;" glyph-name="m_sort" d="M494.933 534.045l39.822 40.533-211.2 207.36-211.342-207.502 39.822-40.533 142.933 140.373v-377.458h56.889v377.6zM874.809 318.72l-142.933-140.373v377.6h-56.889v-377.458l-143.076 140.373-39.822-40.533 211.342-207.502 211.2 207.36z" />
<glyph unicode="&#xe936;" glyph-name="m_shortcut" d="M511.004 12.658c-3.413 0-6.827 0.711-10.098 2.133-9.244 4.124-226.987 102.684-264.96 291.556-21.618 107.52 19.627 220.587 122.738 336.356l-147.484 147.484c-7.111 7.111-9.244 17.778-5.404 27.164 3.84 9.244 12.942 15.36 23.040 15.36 0 0 0 0 0 0l554.667-0.996c13.653 0 24.889-11.093 24.889-24.889l0.142-553.813c0-10.098-6.116-19.2-15.36-23.040s-20.053-1.707-27.164 5.404l-152.604 152.604c-26.596-12.373-84.907-45.796-111.076-110.080-25.316-62.578-14.933-139.662 30.862-228.978 4.836-9.387 3.129-20.764-4.124-28.444-4.836-5.12-11.378-7.822-18.062-7.822zM288.996 782.791l121.742-121.742c9.529-9.529 9.813-24.889 0.569-34.702-103.253-109.511-145.778-213.902-126.436-310.187 21.191-105.244 111.787-180.48 174.364-221.013-25.884 75.236-26.88 142.933-2.702 202.098 43.236 105.529 150.329 142.222 154.88 143.787 8.96 2.987 18.773 0.569 25.458-5.973l121.884-121.884-0.142 468.907-469.618 0.711z" />
<glyph unicode="&#xe937;" glyph-name="m_size-contract" d="M895.004 497.351h-312.889v313.173h56.889v-256.284h256zM439.893 42.24h-56.889v256.284h-256v56.889h312.889z" />
<glyph unicode="&#xe938;" glyph-name="m_cancel" d="M512.142 835.84c-225.991 0-409.884-183.893-409.884-409.884s183.893-409.884 409.884-409.884 409.884 183.893 409.884 409.884-183.893 409.884-409.884 409.884zM512.142 778.951c82.347 0 158.151-28.444 218.311-75.947l-495.36-495.36c-47.502 60.16-75.947 135.964-75.947 218.311 0 194.702 158.436 352.996 352.996 352.996zM512.142 72.96c-91.876 0-175.502 35.271-238.364 93.013l498.489 498.489c57.742-62.862 93.013-146.631 93.013-238.364-0.142-194.702-158.436-353.138-353.138-353.138z" />
<glyph unicode="&#xe939;" glyph-name="m_status-disconnected" d="M514.702 835.983c-225.991 0-409.884-183.893-409.884-409.884s183.893-409.884 409.884-409.884 409.884 183.893 409.884 409.884-183.893 409.884-409.884 409.884zM514.702 73.103c-184.747 0-336.782 142.791-351.716 323.84h220.729v-152.178h56.889v209.067h-277.76c14.222 181.76 166.542 325.262 351.858 325.262s337.636-143.502 351.858-325.262h-224.711v152.178h-56.889v-209.067h281.458c-14.933-181.049-166.969-323.84-351.716-323.84z" />
<glyph unicode="&#xe93a;" glyph-name="m_status-ok" d="M514.133 16.214c-225.991 0-409.884 183.893-409.884 409.884s183.893 409.884 409.884 409.884 409.884-183.893 409.884-409.884-183.893-409.884-409.884-409.884zM514.133 779.094c-194.702 0-352.996-158.293-352.996-352.996s158.293-352.996 352.996-352.996 352.996 158.293 352.996 352.996-158.293 352.996-352.996 352.996zM482.987 310.756l-103.111 103.253 40.249 40.249 62.862-63.004 137.244 137.244 40.249-40.249z" />
<glyph unicode="&#xe93b;" glyph-name="m_status-ok-fill" d="M514.133 834.987c-225.991 0-409.884-183.893-409.884-409.884s183.893-409.884 409.884-409.884 409.884 183.893 409.884 409.884-183.893 409.884-409.884 409.884zM482.987 309.76l-103.111 103.253 40.249 40.249 63.004-63.004 137.244 137.244 40.249-40.249-177.636-177.493z" />
<glyph unicode="&#xe93c;" glyph-name="m_status-error" d="M515.129 16.214c-225.991 0-409.884 183.893-409.884 409.884s183.893 409.884 409.884 409.884 409.884-183.893 409.884-409.884-183.893-409.884-409.884-409.884zM515.129 779.094c-194.702 0-352.996-158.293-352.996-352.996s158.293-352.996 352.996-352.996 352.996 158.293 352.996 352.996-158.293 352.996-352.996 352.996zM372.047 530.897l40.226 40.226 247.793-247.793-40.226-40.226-247.793 247.793zM372.047 323.33l247.793 247.793 40.226-40.226-247.793-247.793-40.226 40.226z" />
<glyph unicode="&#xe93d;" glyph-name="m_status-error-fill" d="M515.129 813.654c-214.187 0-388.551-174.364-388.551-388.551s174.364-388.551 388.551-388.551 388.551 174.364 388.551 388.551-174.222 388.551-388.551 388.551zM660.053 322.134l-40.249-40.249-103.822 103.822-103.822-103.822-40.249 40.249 103.822 103.822-103.822 103.822 40.249 40.249 103.822-103.822 103.822 103.822 40.249-40.249-103.822-103.822 103.822-103.822z" />
<glyph unicode="&#xe93e;" glyph-name="m_status-denied" d="M513.564 835.983c-225.991 0-409.884-183.893-409.884-409.884s183.893-409.884 409.884-409.884 409.884 183.893 409.884 409.884-183.751 409.884-409.884 409.884zM513.564 73.103c-87.040 0-166.827 31.716-228.409 84.196l184.889 184.889-40.249 40.249-184.889-184.889c-52.48 61.582-84.338 141.511-84.338 228.551 0 194.702 158.293 352.996 352.996 352.996 87.182 0 166.969-31.858 228.551-84.338l-183.182-183.182 40.249-40.249 183.182 183.182c52.48-61.582 84.196-141.369 84.196-228.409 0-194.56-158.293-352.996-352.996-352.996z" />
<glyph unicode="&#xe93f;" glyph-name="m_status-pending" d="M515.698 16.214c-225.991 0-409.884 183.893-409.884 409.884s183.893 409.884 409.884 409.884 409.884-183.893 409.884-409.884-183.893-409.884-409.884-409.884zM515.698 779.094c-194.702 0-352.996-158.293-352.996-352.996s158.293-352.996 352.996-352.996 352.996 158.293 352.996 352.996-158.436 352.996-352.996 352.996zM771.129 382.578h-310.756v176.782h56.889v-119.893h253.867z" />
<glyph unicode="&#xe940;" glyph-name="m_status-retracted" d="M513.138 16.214c-225.991 0-409.884 183.893-409.884 409.884s183.893 409.884 409.884 409.884 409.884-183.893 409.884-409.884-183.893-409.884-409.884-409.884zM513.138 779.094c-194.702 0-352.996-158.293-352.996-352.996s158.293-352.996 352.996-352.996 352.996 158.293 352.996 352.996-158.436 352.996-352.996 352.996zM691.627 423.823v-58.027h-348.16l131.413 156.444h72.533l-80.782-98.418h224.996z" />
<glyph unicode="&#xe941;" glyph-name="m_status-warn" d="M512.569 16.214c-225.991 0-409.884 183.893-409.884 409.884s183.893 409.884 409.884 409.884 409.884-183.893 409.884-409.884-183.893-409.884-409.884-409.884zM512.569 779.094c-194.702 0-352.996-158.293-352.996-352.996s158.293-352.996 352.996-352.996 352.996 158.293 352.996 352.996-158.293 352.996-352.996 352.996zM511.147 257.423l-171.378 171.378 171.378 171.378 171.378-171.378-171.378-171.378zM420.267 428.8l90.88-90.88 90.88 90.88-90.88 90.88-90.88-90.88z" />
<glyph unicode="&#xe942;" glyph-name="m_status-warn-fill" d="M420.273 449.197l90.912 90.912 90.912-90.912-90.912-90.912-90.912 90.912zM512 856.32c-226.128-0.324-409.316-183.711-409.316-409.884 0-226.373 183.512-409.884 409.884-409.884s409.884 183.511 409.884 409.884v0c-0.243 226.425-183.852 409.884-410.311 409.884-0.050 0-0.1 0-0.15 0h0.008zM511.147 277.333l-170.667 170.667 170.667 170.667 171.52-169.529z" />
<glyph unicode="&#xe943;" glyph-name="m_status-running" d="M510.578 835.983c-225.991 0-409.884-183.893-409.884-409.884s183.893-409.884 409.884-409.884 409.884 183.893 409.884 409.884-183.893 409.884-409.884 409.884zM510.578 73.103c-184.747 0-336.782 142.791-351.716 323.84h249.173v56.889h-249.316c14.222 181.76 166.542 325.262 351.858 325.262 194.702 0 352.996-158.293 352.996-352.996s-158.436-352.996-352.996-352.996zM510.151 453.831h141.084v-56.889h-141.084v56.889z" />
<glyph unicode="&#xe944;" glyph-name="m_world" d="M510.578 827.591c-222.446 0-402.773-180.328-402.773-402.773s180.328-402.773 402.773-402.773c222.446 0 402.773 180.328 402.773 402.773-0.243 222.348-180.425 402.531-402.75 402.773zM150.898 408.32h147.769c0.992-54.506 7.831-106.908 19.918-157.268l-125.731 4.948c-24.075 44.088-39.295 96.152-41.925 151.513zM531.911 635.876v146.347c46.507-13.084 87.751-67.982 114.773-145.92h-114.773zM659.911 593.209c11.044-42.144 18.206-90.935 19.882-141.116l-147.882-1.107v142.222h128zM489.244 782.223v-146.347h-114.773c27.022 77.938 68.267 132.124 114.773 146.347zM489.244 593.636v-142.222h-147.911c1.705 51.287 8.867 100.078 20.934 146.898l126.977-4.676zM298.667 450.987h-147.2c3.89 52.623 18.597 101.032 41.896 144.114l123.935-1.892c-10.313-42.126-17.015-90.965-18.603-141.094zM341.333 408.32h147.911v-152.32h-128c-11.783 45.448-18.991 97.825-19.903 151.735zM489.244 213.334v-145.067c-46.364 13.084-87.467 67.556-114.489 145.067h114.489zM531.911 68.409v144.924h114.489c-27.022-77.938-68.124-132.551-114.489-145.493zM531.911 256v152.32h147.911c-1.125-54.596-8.528-106.937-21.516-157.028l-126.964 4.708zM722.347 408.32h147.911c-2.807-56.433-18.275-108.679-43.6-154.741l-123.085 1.852c11.083 45.617 17.876 98.23 18.765 152.279zM722.347 450.987c-1.513 51.204-8.117 100.061-19.333 147.129l125.858-4.907c22.363-41.19 37.070-89.599 40.89-141.040l-147.556-1.183zM802.276 635.876h-110.222c-14.993 50.043-38.168 93.511-68.289 131.183 73.65-25.747 134.313-71.163 177.518-130.167zM396.8 766.294c-29.529-36.906-52.704-80.375-66.992-127.698l-110.643-2.719c43.914 60.021 104.578 105.437 175.093 129.659zM219.733 213.334h109.653c14.984-49.716 38.054-92.892 68.002-130.326-73.335 25.619-133.778 70.723-176.955 129.33zM624.356 83.2c29.419 36.829 52.499 80.204 66.712 127.421l110.355 2.712c-43.809-59.826-104.262-105.125-174.526-129.371z" />
<glyph unicode="&#xe945;" glyph-name="m_message-error-red-fill" d="M922.738 243.058l-293.262 501.333c-24.889 40.676-68.978 64.853-118.187 64.853s-93.44-24.32-118.471-65.28l-292.836-500.622c-24.036-39.68-25.031-87.324-2.276-127.716 23.893-42.667 70.116-69.12 120.747-69.12h585.813c50.631 0 96.853 26.453 120.747 69.12 22.613 40.533 21.618 88.32-2.276 127.431zM541.44 170.667h-56.889v69.12h56.889v-69.12zM541.44 301.227h-56.889v319.289h56.889v-319.289z" />
<glyph unicode="&#xe946;" glyph-name="m_down" d="M509.867 179.485l-400.64 400.782 40.107 40.249 360.533-360.533 363.52 363.662 40.249-40.249z" />
<glyph unicode="&#xe947;" glyph-name="m_signout" d="M469.333 79.36h-341.333c-14.764 1.144-26.311 13.406-26.311 28.364 0 0.028 0 0.056 0 0.084v637.436c0 15.709 12.735 28.444 28.444 28.444h341.333c15.644 0 19.911-12.8 19.911-28.444s-4.267-26.311-19.911-26.311h-315.022v-584.818h314.311c15.644 0 17.778-10.667 17.778-26.311s-2.133-28.444-19.2-28.444zM555.947 13.227c-15.709 0-28.444 12.735-28.444 28.444v200.107h-243.058c-15.709 0-28.444 12.735-28.444 28.444v312.889c0 15.709 12.735 28.444 28.444 28.444h243.342v197.689c0.068 15.658 12.777 28.325 28.444 28.325 7.825 0 14.912-3.16 20.055-8.273l385.848-381.581c5.154-5.149 8.342-12.264 8.342-20.124s-3.188-14.976-8.342-20.124l-386.134-385.991c-5.139-5.098-12.217-8.249-20.031-8.249-0.008 0-0.016 0-0.024 0zM312.889 298.667h241.778c15.709 0 28.444-12.735 28.444-28.444v-160l318.578 317.44-318.578 312.889v-157.44c0.035-0.511 0.055-1.108 0.055-1.709 0-14.636-11.76-26.526-26.346-26.735h-243.931v-256z" />
<glyph unicode="&#xe948;" glyph-name="m_start" d="M515.271 16.071c-225.991 0-409.884 183.893-409.884 409.884s183.893 409.884 409.884 409.884c225.991 0 409.884-183.893 409.884-409.884s-183.893-409.884-409.884-409.884zM515.271 778.951c-194.702 0-352.996-158.293-352.996-352.996s158.293-352.996 352.996-352.996 352.996 158.293 352.996 352.996-158.293 352.996-352.996 352.996zM410.88 206.507c-4.836 0-9.529 1.138-13.938 3.698-8.96 4.978-14.507 14.507-14.507 24.747v382.151c0 10.382 5.547 19.769 14.649 24.889 8.96 4.978 20.053 4.836 28.871-0.569l310.898-191.858c8.391-5.262 13.511-14.364 13.511-24.32 0-9.813-5.12-19.058-13.653-24.178l-310.898-190.293c-4.693-2.987-9.813-4.267-14.933-4.267zM439.324 566.045v-280.32l228.124 139.662-228.124 140.658z" />
<glyph unicode="&#xe949;" glyph-name="m_stop" d="M512.711 16.071c-225.991 0-409.884 183.893-409.884 409.884s183.893 409.884 409.884 409.884c225.991 0 409.884-183.893 409.884-409.884s-183.751-409.884-409.884-409.884zM512.711 778.951c-194.702 0-352.996-158.293-352.996-352.996s158.293-352.996 352.996-352.996 352.996 158.293 352.996 352.996-158.293 352.996-352.996 352.996zM669.867 242.347h-315.449c-15.644 0-28.444 12.8-28.444 28.444v314.027c0 15.644 12.8 28.444 28.444 28.444h315.449c15.644 0 28.444-12.8 28.444-28.444v-314.027c0-15.787-12.658-28.444-28.444-28.444zM383.004 299.236h258.56v257.138h-258.56v-257.138z" />
<glyph unicode="&#xe94a;" glyph-name="m_up" d="M875.804 199.68l-363.662 363.52-360.391-360.391-40.249 40.249 400.64 400.64 403.911-403.769z" />
<glyph unicode="&#xe94b;" glyph-name="m_audit" d="M471.324 154.88c-5.889 0.005-11.218 2.396-15.075 6.258l-82.631 82.631c-3.548 3.799-5.726 8.917-5.726 14.543 0 11.782 9.551 21.333 21.333 21.333 5.626 0 10.744-2.178 14.556-5.737l67.543-67.544 158.009 158.009c3.799 3.548 8.917 5.726 14.543 5.726 11.782 0 21.333-9.551 21.333-21.333 0-5.626-2.178-10.744-5.737-14.556l-173.073-173.072c-3.857-3.862-9.187-6.252-15.075-6.258zM900.551 536.32h-768c-0.004 0-0.008 0-0.012 0-11.782 0-21.333 9.551-21.333 21.333 0 7.389 3.757 13.901 9.464 17.729l384.646 257.329c3.334 2.262 7.447 3.611 11.876 3.611s8.541-1.349 11.951-3.659l383.925-257.232c5.795-3.876 9.56-10.393 9.56-17.791 0-11.782-9.551-21.333-21.333-21.333-0.261 0-0.521 0.005-0.78 0.014zM202.382 578.987h628.053l-312.889 210.204zM322.56 23.467h-190.436c-11.782 0-21.333 9.551-21.333 21.333s9.551 21.333 21.333 21.333h26.311v371.484h-26.311c-11.782 0-21.333 9.551-21.333 21.333s9.551 21.333 21.333 21.333h190.578c11.782 0 21.333-9.551 21.333-21.333s-9.551-21.333-21.333-21.333h-26.453v-371.484h26.311c11.782 0 21.333-9.551 21.333-21.333s-9.551-21.333-21.333-21.333zM200.96 66.134h52.622v371.484h-52.622v-371.484zM900.693 23.467h-190.436c-11.782 0-21.333 9.551-21.333 21.333s9.551 21.333 21.333 21.333h26.311v371.484h-26.311c-11.782 0-21.333 9.551-21.333 21.333s9.551 21.333 21.333 21.333h190.578c11.782 0 21.333-9.551 21.333-21.333s-9.551-21.333-21.333-21.333h-26.453v-371.484h26.311c11.782 0 21.333-9.551 21.333-21.333s-9.551-21.333-21.333-21.333zM779.093 66.134h52.622v371.484h-52.622v-371.484z" />
<glyph unicode="&#xe94c;" glyph-name="m_delete" d="M160.427 738.56h703.858v-54.756h-703.858v54.756zM362.951 602.169h42.667v-458.524h-42.667v458.524zM489.956 602.169h42.667v-458.524h-42.667v458.524zM620.089 602.169h42.667v-458.524h-42.667v458.524zM800.142 14.223h-572.587c-0.024 0-0.052 0-0.080 0-15.709 0-28.444 12.735-28.444 28.444 0 0.751 0.029 1.495 0.086 2.231l-0.006 668.347h52.622v-644.693h522.098v643.698h54.756v-668.444c0.015-0.339 0.023-0.738 0.023-1.138 0-15.709-12.735-28.444-28.444-28.444-0.008 0-0.016 0-0.024 0zM661.476 710.116h-42.667v81.067h-213.333v-81.067h-42.667v102.258c0 0 0 0 0 0 0 11.732 9.47 21.252 21.183 21.333h256.008c11.782 0 21.333-9.551 21.333-21.333v-102.4z" />
<glyph unicode="&#xe94d;" glyph-name="m_status-info" d="M513.138 16.214c-226.373 0-409.884 183.512-409.884 409.884s183.512 409.884 409.884 409.884c226.173 0 409.56-183.187 409.884-409.284 0-0.073 0-0.123 0-0.174 0-226.459-183.459-410.068-409.861-410.311zM513.138 779.094c-194.954 0-352.995-158.042-352.995-352.996s158.041-352.996 352.996-352.996c194.954 0 352.996 158.041 352.996 352.996 0 0.2 0 0.4 0 0.6-0.565 194.58-158.338 352.154-352.972 352.396zM486.116 478.294h56.889v-287.289h-56.889v287.289zM555.093 589.654c0-23.8-19.294-43.093-43.093-43.093s-43.093 19.294-43.093 43.093c0 23.8 19.294 43.093 43.093 43.093s43.093-19.294 43.093-43.093z" />
<glyph unicode="&#xe94e;" glyph-name="m_favorite-fill" d="M512 843.094c-12.546-0.008-23.195-8.142-26.964-19.426l-89.516-276.965h-285.44c-15.692-0.023-28.404-12.749-28.404-28.444 0-9.442 4.601-17.81 11.683-22.984l230.481-166.314-89.458-275.2c-0.866-2.601-1.366-5.597-1.366-8.708 0-15.709 12.735-28.444 28.444-28.444 6.287 0 12.097 2.039 16.805 5.493l233.734 170.042 233.102-169.529c4.641-3.425 10.473-5.481 16.786-5.481 15.709 0 28.444 12.735 28.444 28.444 0 3.181-0.522 6.239-1.485 9.095l-89.257 274.431 227.556 165.262c7.163 5.23 11.764 13.598 11.764 23.040 0 15.695-12.712 28.421-28.402 28.444h-282.882l-88.604 277.476c-3.771 11.536-14.435 19.738-27.019 19.769h-0.004z" />
<glyph unicode="&#xe94f;" glyph-name="m_favorite-outline" d="M512 814.649l95.431-296.676h303.502l-244.764-177.92 95.716-294.4-250.596 181.902-249.884-182.613 95.858 294.969-247.182 178.347h306.204l95.716 296.391zM512 859.449c-0.013 0-0.028 0-0.044 0-19.812 0-36.62-12.86-42.532-30.688l-85.424-265.703h-273.92c-24.685-0.075-44.668-20.104-44.668-44.8 0-14.859 7.234-28.029 18.373-36.179l220.855-159.377-85.333-263.964c-1.391-4.135-2.193-8.897-2.193-13.846 0-24.742 20.058-44.8 44.8-44.8 9.914 0 19.075 3.22 26.496 8.671l223.591 163.184 223.573-162.56c7.296-5.364 16.458-8.584 26.371-8.584 24.742 0 44.8 20.058 44.8 44.8 0 4.949-0.803 9.711-2.285 14.162l-85.242 263.079 218.027 158.293c11.265 8.238 18.499 21.408 18.499 36.267 0 24.696-19.982 44.725-44.66 44.8l-271.083 0.569-85.333 265.671c-5.959 18.217-22.803 31.146-42.667 31.147v0z" />
<glyph unicode="&#xe950;" glyph-name="m_help" d="M512.711 18.205c-226.373 0-409.884 183.512-409.884 409.884s183.512 409.884 409.884 409.884c226.373 0 409.884-183.512 409.884-409.884-0.243-226.275-183.609-409.642-409.861-409.884zM512.711 781.085c-194.954 0-352.996-158.041-352.996-352.996s158.041-352.996 352.996-352.996c194.954 0 352.996 158.041 352.996 352.996-0.242 194.856-158.139 352.753-352.972 352.996zM480.711 305.494l-1.564 19.911c-4.551 40.676 9.244 86.756 47.644 132.124 34.56 41.529 53.76 71.111 53.76 105.956 0 39.111-24.604 65.28-72.96 65.991-0.166 0.001-0.362 0.001-0.558 0.001-28.743 0-55.412-8.882-77.412-24.051l-18.030 48.797c30.527 19.287 67.677 30.733 107.5 30.733 0.807 0 1.613-0.005 2.418-0.014 88.198 0.001 127.878-54.47 127.878-112.923 0-52.196-29.156-90.596-65.991-133.689-33.849-39.964-46.080-74.524-43.804-113.778l0.853-19.058h-59.733zM508.302 149.049c-24.659 0.11-44.606 20.125-44.606 44.8 0 1.001 0.033 1.994 0.097 2.979-0.070 0.762-0.106 1.807-0.106 2.86 0 25.057 20.312 45.369 45.369 45.369 0.285 0 0.569-0.003 0.853-0.008 25.208-1.597 45.084-22.467 45.084-47.98 0-25.763-20.267-46.793-45.728-48.015l-0.821-0.004z" />
<glyph unicode="&#xe951;" glyph-name="m_download" d="M724.053 500.907l-183.040-183.040v494.364h-56.889v-494.364l-183.040 183.040-40.249-40.107 251.733-251.876 251.733 251.876-40.249 40.107zM156.444 682.667v-604.444c0 0 0-0.001 0-0.001 0-5.213 4.186-9.448 9.379-9.528h691.208c0.305-0.035 0.658-0.054 1.016-0.054 5.263 0 9.529 4.266 9.529 9.529 0 0.219-0.007 0.437-0.022 0.652l0.002 603.846h56.889v-604.444c0 0 0 0 0 0 0-36.632-29.655-66.337-66.268-66.418h-691.919c-0.085 0-0.186-0.001-0.287-0.001-36.682 0-66.418 29.736-66.418 66.418 0 0.2 0.001 0.4 0.003 0.6v603.845h56.889z" />
<glyph unicode="&#xe952;" glyph-name="m_edit" d="M375.467 345.174l-36.978-78.649c-0.336-0.888-0.531-1.915-0.531-2.987 0-4.791 3.884-8.676 8.676-8.676 0.037 0 0.073 0 0.109 0.001h2.412l79.644 35.556c1.511 0.442 2.805 1.23 3.839 2.275l0.001 0.001 466.204 464.924c1.559 1.568 2.522 3.729 2.522 6.116s-0.963 4.548-2.523 6.116v0l-42.667 44.658c-1.576 1.658-3.795 2.692-6.256 2.702h-0.002c-0.21 0.022-0.453 0.034-0.699 0.034-2.227 0-4.219-1.003-5.55-2.583l-0.009-0.011-89.884-89.316h-561.351c-31.419 0-56.889-25.47-56.889-56.889v0-600.178c0-31.419 25.47-56.889 56.889-56.889v0h580.978c31.419 0 56.889 25.47 56.889 56.889v0 554.667l-56.889-57.742v-496.782h-580.693v599.467h504.889l-320.142-319.431c-0.874-0.901-1.554-1.995-1.973-3.21l-0.018-0.061z" />
<glyph unicode="&#xe953;" glyph-name="m_save" d="M860.302 830.151h-228.409c-80.085-0.081-144.986-64.981-145.067-145.059v-343.759l-182.898 182.613-40.249-40.391 251.733-251.733 251.733 251.733-40.249 40.249-183.182-182.471v343.751c0.081 48.667 39.511 88.097 88.17 88.178h228.417c0 0 0.001 0 0.001 0 5.184 0 9.387-4.203 9.387-9.387 0-0.050 0-0.1-0.001-0.15v-687.495c0 0 0-0.001 0-0.001 0-5.213-4.186-9.448-9.379-9.528h-691.208c-5.201 0.080-9.387 4.315-9.387 9.528 0 0 0 0.001 0 0.001v687.644c0 0 0 0.001 0 0.001 0 5.213 4.186 9.448 9.379 9.528h85.341v56.889h-85.333c-36.62-0.081-66.276-29.786-66.276-66.418 0 0 0 0 0 0v-687.644c0 0 0 0 0 0 0-36.632 29.655-66.337 66.268-66.418h691.208c36.62 0.081 66.276 29.786 66.276 66.418 0 0 0 0 0 0v687.644c-0.081 36.57-29.705 66.195-66.268 66.276z" />
<glyph unicode="&#xe954;" glyph-name="m_audit2" d="M464.64 437.76c-5.889 0.005-11.218 2.396-15.075 6.258l-83.2 83.2c-3.548 3.799-5.726 8.917-5.726 14.543 0 11.782 9.551 21.333 21.333 21.333 5.626 0 10.744-2.178 14.556-5.737l68.112-68.113 159.289 159.431c3.871 3.889 9.228 6.295 15.147 6.295 11.803 0 21.37-9.568 21.37-21.37 0-5.884-2.378-11.212-6.225-15.076l-174.506-174.506c-3.857-3.862-9.187-6.252-15.075-6.258zM464.64 179.627c-5.889 0.005-11.218 2.396-15.075 6.258l-83.2 83.2c-2.592 3.491-4.15 7.885-4.15 12.642 0 11.782 9.551 21.333 21.333 21.333 4.901 0 9.415-1.652 13.017-4.43l68.075-68.088 159.289 160c3.871 3.889 9.228 6.295 15.147 6.295 11.803 0 21.37-9.568 21.37-21.37 0-5.884-2.378-11.212-6.225-15.076l-174.506-174.506c-3.857-3.862-9.187-6.252-15.075-6.258zM762.453 20.054h-504.32c-32.666 0.322-59.022 26.877-59.022 59.588 0 0.001 0 0.002 0 0.003v653.369c0 0 0 0 0 0 0 32.861 26.599 59.51 59.441 59.591h78.514v-42.667h-78.933c-9.099-0.316-16.356-7.768-16.356-16.915 0-0.003 0-0.007 0-0.010v-653.368c0 0 0 0 0-0.001 0-9.297 7.496-16.843 16.775-16.924h503.901c9.286 0.081 16.782 7.627 16.782 16.924 0 0 0 0 0 0.001v653.369c0 0 0 0 0 0.001 0 9.297-7.496 16.843-16.775 16.924h-77.945v42.667h77.938c32.85-0.081 59.449-26.73 59.449-59.591 0 0 0 0 0 0v-653.369c0 0 0 0 0 0 0-32.861-26.599-59.51-59.441-59.591zM609.28 800.854h-48.498c-5.762 22.097-25.541 38.142-49.067 38.142s-43.304-16.046-48.988-37.79l-48.576-0.352c-7.855 0-14.222-6.368-14.222-14.222v-31.858c0-7.855 6.368-14.222 14.222-14.222h195.129c7.855 0 14.222 6.368 14.222 14.222v32.142c-0.16 7.731-6.465 13.938-14.219 13.938-0.001 0-0.002 0-0.003 0z" />
<glyph unicode="&#xe955;" glyph-name="m_message-error" d="M807.111 46.507h-585.813c-50.631 0-96.853 26.453-120.747 69.12-22.613 40.391-21.76 88.036 2.276 127.716l292.836 500.622c25.173 41.102 69.262 65.28 118.471 65.28s93.44-24.32 118.187-64.853l293.262-501.333c23.893-39.253 24.889-87.040 2.276-127.431-23.893-42.667-70.258-69.12-120.747-69.12zM514.133 752.356c-29.298 0-55.324-14.080-69.689-37.689l-292.693-500.338c-0.142-0.142-0.142-0.284-0.284-0.427-13.511-22.187-14.080-47.929-1.422-70.4 14.080-25.031 40.676-40.107 71.111-40.107h585.813c30.436 0 57.031 14.933 71.111 40.107 12.658 22.613 12.089 48.213-1.422 70.4l-293.262 501.333c-13.938 23.040-39.964 37.12-69.262 37.12zM127.147 228.694v0 0zM483.982 619.52h56.889v-319.289h-56.889v319.289zM483.982 238.649h56.889v-69.12h-56.889v69.12z" />
<glyph unicode="&#xe956;" glyph-name="m_brand" d="M513.991 824.889c-222.445 0-402.773-180.328-402.773-402.773s180.328-402.773 402.773-402.773c222.246 0 402.449 180.004 402.773 402.173 0 0.073 0 0.123 0 0.174 0 222.531-180.276 402.957-402.75 403.2zM641.991 295.68c14.018-23.669 22.302-52.169 22.302-82.603 0-31.798-9.043-61.483-24.697-86.626-13.107-22.355-30.522-41.63-51.13-56.823l-4.075-1.077v289.138c23.826-16.363 43.274-37.355 57.399-61.809zM585.102 361.245v291.413q79.218-56.889 79.218-143.929c0.002-0.315 0.003-0.688 0.003-1.062 0-33.414-9.699-64.562-26.436-90.783-13.050-22.401-30.972-41.459-52.317-55.821zM769.991 168.534c2.273 12.27 3.615 26.429 3.697 40.887-0.575 55.772-16.756 107.576-44.369 151.463 28.077 39.998 44.379 90.61 44.379 145.030 0 0.79-0.003 1.579-0.010 2.367 0.004 0.331 0.006 0.865 0.006 1.399 0 55.23-18.156 106.22-48.825 147.327l-248.425-0.651v-592.924c-182.468 19.476-323.347 172.591-323.347 358.61 0 199.117 161.416 360.533 360.533 360.533s360.533-161.416 360.533-360.533c0-99.132-40.009-188.92-104.761-254.096z" />
<glyph unicode="&#xe957;" glyph-name="m_reset" d="M888.178 415.289c-38.542 92.587-113.778 177.778-211.058 239.929-28.823 18.713-61.997 36.079-96.789 50.305l133.34 51.811c10.669 4.262 18.070 14.509 18.070 26.485 0 15.709-12.735 28.444-28.444 28.444-3.366 0-6.596-0.585-9.593-1.658l-205.028-75.173c-10.993-4.102-18.679-14.511-18.679-26.716 0-3.531 0.643-6.912 1.819-10.031l76.309-208.017c4.117-10.988 14.53-18.668 26.738-18.668 15.73 0 28.482 12.752 28.482 28.482 0 3.523-0.639 6.896-1.809 10.010l-54.122 147.43c1.341-0.872 2.885-1.683 4.504-2.349 36.52-14.536 67.601-30.72 96.783-49.59 85.593-54.586 152.864-130.532 186.997-212.026 31.858-78.933 30.72-153.173-5.262-209.067-76.373-119.893-283.591-125.156-461.796-11.662s-260.978 303.502-184.889 423.396c3.147 4.512 5.029 10.111 5.029 16.149 0 15.709-12.735 28.444-28.444 28.444-10.389 0-19.477-5.57-24.441-13.886-93.228-147.046-2.49-372.183 202.168-502.601 81.625-54.335 181.419-87.56 288.826-89.874 107.974-0.010 201.272 40.097 251.477 118.888 46.080 72.676 49.778 165.547 9.813 261.547zM534.898 691.911h0.996s0-1.138 0-1.849z" />
<glyph unicode="&#xe958;" glyph-name="m_auditor" d="M733.156 588.658v0c-5.889 0.005-11.218 2.396-15.075 6.258l-53.902 53.902c-3.548 3.799-5.726 8.917-5.726 14.543 0 11.782 9.551 21.333 21.333 21.333 5.626 0 10.744-2.178 14.556-5.737l38.814-38.957 97.991 97.991c3.799 3.548 8.917 5.726 14.543 5.726 11.782 0 21.333-9.551 21.333-21.333 0-5.626-2.178-10.744-5.737-14.556l-113.766-113.765c-3.752-3.355-8.733-5.405-14.192-5.405-0.061 0-0.121 0-0.182 0.001zM733.156 395.805v0c-5.889 0.005-11.218 2.396-15.075 6.258l-53.902 53.902c-3.548 3.799-5.726 8.917-5.726 14.543 0 11.782 9.551 21.333 21.333 21.333 5.626 0 10.744-2.178 14.556-5.737l38.814-38.815 97.991 97.991c3.799 3.548 8.917 5.726 14.543 5.726 11.782 0 21.333-9.551 21.333-21.333 0-5.626-2.178-10.744-5.737-14.556l-113.766-113.054c-3.692-3.702-8.735-6.056-14.327-6.257zM926.009 837.12h-50.489v-28.444h50.489c5.812 0 10.524-4.712 10.524-10.524v-483.556c0-5.812-4.712-10.524-10.524-10.524h-327.111c-5.812 0-10.524 4.712-10.524 10.524v483.556c0 5.812 4.712 10.524 10.524 10.524h50.916v28.444h-50.489c-8.619-0.010-16.576-2.838-23.001-7.611-3.607 3.342-8.507 5.337-13.874 5.337-0.086 0-0.172-0.001-0.257-0.002h-42.654c-0.704 0.082-1.52 0.129-2.347 0.129s-1.643-0.047-2.445-0.139c-18.264-5.487-39.365-8.651-61.204-8.651-5.504 0-10.96 0.201-16.363 0.596-1.435 0.263-3.927 0.437-6.46 0.437-12.259 0-23.564-4.081-32.631-10.959-27.123-18.975-47.262-46.589-56.504-78.811-10.367-33.506-16.195-70.856-16.195-109.566 0-1.189 0.006-2.378 0.016-3.564l-0.001-4.654c0.053-1.045 0.083-2.268 0.083-3.499 0-6.178-0.756-12.18-2.181-17.917-1.713-6.367-2.758-14.261-2.758-22.4 0-0.696 0.008-1.39 0.023-2.083 1.364-24.959 10.013-47.763 23.845-66.51 4.366-6.143 9.67-11.718 15.664-16.458l1.876-1.551c1.91-18.573 10.611-34.816 23.543-46.449l5.043-5.32c-1.213-28.927-7.952-55.986-19.181-80.562-22.037-10.845-48.298-21.47-75.789-29.15-56.113-16.253-102.097-35.025-145.622-57.85-18.22-8.974-33.898-30.714-36.152-56.307l-0.019-3.259c-1.991-12.8-5.262-128.853-6.258-164.124-0.005-0.169-0.008-0.369-0.008-0.569 0-11.782 9.551-21.333 21.333-21.333 0.003 0 0.005 0 0.008 0h767.146c11.782 0 21.333 9.551 21.333 21.333v169.387c0 11.782-9.551 21.333-21.333 21.333s-21.333-9.551-21.333-21.333v-148.338h-723.627c1.849 64.142 4.124 128.996 5.12 136.818v3.698c-0.003 0.162-0.005 0.352-0.005 0.544 0 12.469 7.534 23.179 18.297 27.825 37.227 19.513 80.619 37.124 125.824 50.518 46.604 14.837 79.457 25.362 97.52 39.3 23.182 15.929 36.836 92.16 34.987 115.484-1.652 12.79-7.959 23.863-17.138 31.657-7.147 5.64-11.667 14.191-11.733 23.799-1.361 11.273-7.531 20.866-16.363 26.806-3.204 2.415-5.87 5.035-8.17 7.956-9.187 11.879-15.172 26.509-16.548 42.457-0.049 0.943-0.066 1.693-0.066 2.448 0 4.544 0.587 8.95 1.689 13.148 1.948 7.764 3.111 17.089 3.111 26.687 0 1.342-0.023 2.678-0.068 4.009l0.005 4.642c-0.018 1.291-0.028 2.816-0.028 4.343 0 34.713 5.208 68.211 14.885 99.753 6.079 19.896 19.535 38.464 37.33 51.435 2.856 2.718 6.372 4.271 10.25 4.271 1.523 0 2.99-0.239 4.365-0.682 5.945-0.482 12.982-0.772 20.088-0.772 24.146 0 47.508 3.356 69.645 9.627l36.318-0.435v-477.013c0-21.522 17.447-38.969 38.969-38.969h327.111c21.522 0 38.969 17.447 38.969 38.969v483.556c-0.24 21.339-17.594 38.545-38.967 38.545-0.151 0-0.301-0.001-0.452-0.003zM826.88 842.098h-31.431c-3.81 14.237-16.594 24.55-31.787 24.55s-27.977-10.313-31.734-24.32l-31.626-0.23c-4.948 0-8.96-4.012-8.96-8.96v-20.622c0-4.948 4.012-8.96 8.96-8.96h126.436c4.948 0 8.96 4.012 8.96 8.96v20.622c0 0 0 0.001 0 0.001 0 4.898-3.931 8.879-8.81 8.959z" />
<glyph unicode="&#xe959;" glyph-name="m_admin-super" d="M897.849 805.547h-768c-11.782 0-21.333-9.551-21.333-21.333v-604.871c0-11.782 9.551-21.333 21.333-21.333h361.671v-90.738h-129.707c-11.782 0-21.333-9.551-21.333-21.333s9.551-21.333 21.333-21.333h300.373c11.782 0 21.333 9.551 21.333 21.333s-9.551 21.333-21.333 21.333h-128v90.738h363.662c11.782 0 21.333 9.551 21.333 21.333v604.871c0 11.782-9.551 21.333-21.333 21.333zM858.169 642.987l-35.982-25.742-24.178 40.818-24.32-40.818-35.982 25.742 36.693 36.409-45.511 10.24 16.924 39.964 37.831-22.044-9.244 45.227h47.076l-9.244-45.227 37.831 22.044 17.493-39.964-45.511-10.24zM463.502 417.565c-0.979 8.135-4.952 15.194-10.766 20.16-4.214 3.266-6.873 8.274-6.873 13.904 0 0.125 0.001 0.249 0.004 0.373-0.8 7.247-4.752 13.453-10.439 17.278-1.859 1.43-3.403 2.974-4.735 4.689-5.514 7.086-9.12 15.811-9.986 25.327-0.025 0.496-0.031 0.857-0.031 1.22 0 2.769 0.37 5.451 1.062 8 1.222 4.817 1.951 10.591 1.951 16.536 0 0.412-0.003 0.822-0.010 1.232l0.001 3.636c-0.004 0.492-0.007 1.073-0.007 1.655 0 21.482 3.278 42.198 9.361 61.676 3.557 11.843 11.452 22.962 21.919 30.848 1.619 1.379 3.538 2.149 5.637 2.149 0.993 0 1.945-0.172 2.829-0.489 3.733-0.303 8.148-0.487 12.604-0.487 15.289 0 30.075 2.158 44.068 6.186 0.649-0.137 2.713-0.058 4.796-0.058 20.272 0 38.788-7.52 52.91-19.923 9.68-6.493 16.747-16.435 19.474-28.051 0.003-2.158-0.030-4.324-0.030-6.497 0-14.679 1.536-28.998 4.455-42.808-0.238-1.5 1.042-4.487 1.611-8.895 0.621-5.274 2.025-10.081 4.103-14.509 0.664-1.423 1.122-3.422 1.122-5.528 0-0.608-0.038-1.206-0.112-1.794-0.944-11.4-4.523-21.865-10.122-30.952-5.209-7.841-9.299-17.366-11.529-27.587-0.099-0.654-0.097-0.769-0.097-0.885 0-4.467-2.511-8.347-6.199-10.306-7.52-4.279-12.595-11.959-13.144-20.864-0.004-8.18 5.97-55.54 21.33-67.060 16.030-10.048 34.503-18.601 54.054-24.716 30.285-10.38 54.143-20.753 77.078-32.656 3.345-1.972 7.679-8.682 7.679-16.404 0-0.113-0.001-0.226-0.003-0.338 0-4.392 1.707-36.819 2.845-71.094h-438.756c0.996 34.844 2.133 67.129 2.702 71.111v2.276c0.015 7.182 4.355 13.346 10.553 16.027 22.692 11.893 49.151 22.633 76.714 30.806 24.757 6.318 43.699 14.314 61.062 24.681 14.231 11.543 21.911 59.899 20.916 72.13zM759.324 200.676c-0.853 29.44-2.276 70.258-3.271 76.658-1.407 16.604-11.188 30.642-25.059 37.991-21.282 11.193-46.553 22.146-72.671 31.299-22.548 7.14-38.455 14.227-53.395 22.806-4.065 11.488-7.792 25.559-9.255 40.295l0.664 0.587c10.754 6.388 18.11 17.519 19.19 30.435 1.782 6.519 4.309 12.098 7.554 17.174 8.121 13.008 13.313 28.954 14.066 46.053 0.046 0.87 0.068 1.65 0.068 2.434 0 6.097-1.332 11.883-3.721 17.083-0.778 1.57-1.385 3.691-1.596 5.928-0.717 5.337-1.57 8.892-2.281 12.306-2.248 10.817-3.534 23.247-3.534 35.978 0 2.352 0.044 4.694 0.131 7.025-2.653 20.699-14.295 38.577-30.896 49.564-20.029 15.664-53.593 31.593-82.891 25.051-11.061-3.301-23.771-5.2-36.924-5.2-3.472 0-6.914 0.132-10.32 0.392-1.125 0.229-2.944 0.375-4.798 0.375-7.655 0-14.727-2.499-20.444-6.727-16.815-11.781-29.304-28.93-35.023-48.936-6.388-20.595-9.978-43.547-9.978-67.338 0-0.749 0.004-1.497 0.011-2.245l-0.001-3.441c0.038-0.689 0.060-1.495 0.060-2.307 0-3.622-0.437-7.142-1.261-10.511-1.036-3.876-1.666-8.672-1.666-13.616 0-0.557 0.008-1.112 0.024-1.666 0.686-15.468 5.913-29.673 14.375-41.388 2.735-3.863 6.068-7.376 9.838-10.362l0.105-0.080c1.204-11.31 6.428-21.215 14.193-28.418l2.731-2.444c-0.804-17.153-4.544-33.219-10.728-48.008-13.507-6.614-29.581-13.077-46.441-17.623-34.409-9.911-62.711-21.429-89.498-35.446-11.391-5.832-21.082-19.6-22.284-35.733l-0.009-1.856c-0.853-5.831-2.276-46.507-3.129-75.804h-110.080v561.92h393.956l331.378-331.236v-230.969h-117.191z" />
<glyph unicode="&#xe95a;" glyph-name="m_filter" d="M416.6 9.067c-5.5 0-11 1.6-15.7 4.7-8 5.3-12.7 14.2-12.7 23.7v371.5l-313 383.1c-7 8.5-8.4 20.3-3.7 30.2s14.7 16.3 25.7 16.3h844.2c11.1 0 21.2-6.5 25.8-16.6s3-22-4.3-30.4l-328.8-383v-290.8c0-11.4-6.8-21.7-17.3-26.2l-189.2-80.2c-3.5-1.5-7.3-2.3-11-2.3zM157.1 781.667l281.5-344.5c4.1-5.1 6.4-11.4 6.4-18v-338.6l132.3 56.1v282.5c0 6.8 2.4 13.4 6.9 18.5l295.3 344h-722.4z" />
<glyph unicode="&#xe95b;" glyph-name="m_storage" d="M816.64 42.667h-612.836c-27.492 0-49.778 22.286-49.778 49.778v452.124c0 11.782 9.551 21.333 21.333 21.333s21.333-9.551 21.333-21.333v-452.124c0-3.927 3.184-7.111 7.111-7.111h612.978c3.927 0 7.111 3.184 7.111 7.111v496.924c0 27.492 22.286 49.778 49.778 49.778h3.271c3.609 0.373 6.4 3.399 6.4 7.075 0 0.013 0 0.025 0 0.038v119.18c0 3.927-3.184 7.111-7.111 7.111h-738.987c-3.927 0-7.111-3.184-7.111-7.111v-119.324c0-3.927 3.184-7.111 7.111-7.111h590.507c11.782 0 21.333-9.551 21.333-21.333s-9.551-21.333-21.333-21.333h-590.507c-27.492 0-49.778 22.286-49.778 49.778v119.324c0 27.492 22.286 49.778 49.778 49.778h738.844c27.492 0 49.778-22.286 49.778-49.778v-119.324c0-27.492-22.286-49.778-49.778-49.778h-3.271c-3.609-0.373-6.4-3.399-6.4-7.075 0-0.013 0-0.025 0-0.038v-496.78c0-27.492-22.286-49.778-49.778-49.778zM652.231 360.96h-285.582c-7.855 0-14.222 6.368-14.222 14.222v96.853c0 7.855 6.368 14.222 14.222 14.222h285.582c7.855 0 14.222-6.368 14.222-14.222v-96.853c0-7.855-6.368-14.222-14.222-14.222zM380.871 389.405h257.138v68.409h-257.138v-68.409z" />
<glyph unicode="&#xe95c;" glyph-name="m_certificate" d="M862.72 81.067l-80.498 180.907c18.178 23.985 29.119 54.329 29.119 87.228 0 46.103-21.485 87.187-54.989 113.787l-0.299 317.385c0 27.492-22.286 49.778-49.778 49.778h-457.529c-27.492 0-49.778-22.286-49.778-49.778v-708.124c0-27.492 22.286-49.778 49.778-49.778h128c11.782 0 21.333 9.551 21.333 21.333s-9.551 21.333-21.333 21.333h-128c-3.927 0-7.111 3.184-7.111 7.111v708.124c0 3.927 3.184 7.111 7.111 7.111h457.387c3.927 0 7.111-3.184 7.111-7.111v-293.689c-14.33 5.174-30.868 8.166-48.105 8.166-80.511 0-145.778-65.267-145.778-145.778 0-31.035 9.698-59.806 26.23-83.446l-83.228-184.418c-0.774-1.699-1.226-3.685-1.226-5.776 0-7.855 6.368-14.222 14.222-14.222 2.539 0 4.922 0.665 6.986 1.831l62.791 34.665 15.076-69.262c1.336-5.937 6.248-10.417 12.309-11.088l1.486-0.006c5.731 0.012 10.664 3.412 12.906 8.302l75.841 168.338 75.093-168.533c2.278-4.979 7.212-8.379 12.941-8.391h1.424c6.259 0.653 11.272 5.28 12.5 11.286l15.945 70.065 62.009-35.129c1.98-1.111 4.346-1.766 6.864-1.766 7.855 0 14.222 6.368 14.222 14.222 0 1.918-0.38 3.747-1.068 5.416zM665.316 466.631c0.225 0.002 0.49 0.002 0.756 0.002 64.801 0 117.333-52.532 117.333-117.333 0-29.971-11.237-57.318-29.729-78.056-1.889-2.159-4.023-4.435-6.156-6.568l-2.56-2.418c-2.133-1.991-4.267-3.84-6.542-5.689l-2.56-1.991c-2.418-1.849-4.978-3.556-7.538-5.12l-2.276-1.422c-2.844-1.707-5.831-3.271-8.818-4.836l-1.564-0.711c-3.271-1.564-6.684-2.987-10.24-4.267h-0.853c-2.894-1.092-6.692-2.262-10.567-3.24l-0.811-0.173c-7.373-1.823-15.884-2.954-24.629-3.127l-9.789-0.002c-30.519 1.751-57.662 14.914-77.487 35.247l-0.024 0.025c-20.866 21.17-33.751 50.254-33.751 82.348 0 64.801 52.532 117.333 117.333 117.333 0.166 0 0.331 0 0.497-0.001zM578.844 76.516l-9.956 46.222c-1.454 6.43-7.119 11.159-13.888 11.159-2.523 0-4.893-0.657-6.948-1.81l-42.595-23.288 60.302 132.978h1.422c4.262-3.832 8.899-7.521 13.752-10.923l0.47-0.313c4.859-3.437 10.443-6.836 16.256-9.857l0.811-0.383c5.062-2.651 11.168-5.293 17.474-7.511l1.015-0.311c5.319-1.976 11.848-3.841 18.547-5.241zM777.956 132.125c-2.021 1.169-4.445 1.859-7.031 1.859-6.749 0-12.4-4.701-13.857-11.008l-10.828-47.171-56.889 129.138c13.865 2.341 26.283 6.3 37.86 11.751l1.109 0.622c6.171 2.956 11.296 5.845 16.218 9.022l0.564-0.347c5.323 3.715 9.96 7.404 14.358 11.355l0.86 0.734 58.027-130.133zM348.16 702.151h258.133v-42.667h-258.133v42.667zM349.867 595.2h256.284v-42.667h-256.284v42.667z" />
<glyph unicode="&#xe95d;" glyph-name="m_connector" d="M512.711 824.889c-222.446 0-402.773-180.328-402.773-402.773s180.328-402.773 402.773-402.773c222.446 0 402.773 180.328 402.773 402.773 0 0.050 0 0.1 0 0.15-0.324 222.279-180.475 402.381-402.75 402.623zM512.711 782.223c198.734-0.242 359.783-161.242 360.107-359.933 0-4.298 0-8.564 0-12.831h-113.778v135.111h-196.693v-135.111h-107.236v135.111h-194.276v-135.111h-107.947c0 4.267 0 8.533 0 12.8 0.323 198.623 161.211 359.56 359.783 359.964zM512.711 62.009c-179.401 0.015-328.203 131.009-355.99 302.567l146.212 2.073v135.111h109.511v-135.111h192.569v135.111h110.933v-135.111h152.604c-28.103-173.426-176.658-304.275-355.816-304.498z" />
<glyph unicode="&#xe95e;" glyph-name="m_connector-sso" d="M518.4 824.889c-222.446 0-402.773-180.328-402.773-402.773s180.328-402.773 402.773-402.773c222.446 0 402.773 180.328 402.773 402.773 0 0.050 0 0.1 0 0.15-0.324 222.279-180.475 402.381-402.75 402.623zM518.4 782.223c198.734-0.242 359.783-161.242 360.107-359.933 0-6.715 0-13.4 0-19.942h-121.316v135.111h-182.044v-135.111h-122.169v135.111h-179.342v-135.111h-114.773c0 6.542 0 13.227 0 19.911 0.323 198.523 161.048 359.399 359.484 359.964zM518.4 62.009c-181.753 0.199-331.994 134.857-356.616 309.844l140.153 1.907v135.111h122.596v-135.111h179.058v135.111h125.156v-135.111h146.489c-24.906-176.833-175.125-311.42-356.816-311.609zM415.716 279.751c-2.844 12.516-8.96 25.031-23.609 25.031-12.603-0.454-22.648-10.78-22.648-23.452 0-1.361 0.116-2.696 0.338-3.993-0.020-14.083 2.825-18.065 29.705-34.136 21.049-12.516 35.413-23.040 35.413-49.493s-14.222-48.213-42.667-48.213-41.244 19.911-43.804 47.076l17.209 2.276c2.276-18.916 6.4-33.28 27.164-33.28 14.222 0 25.316 9.956 25.316 30.436s-14.222 30.151-32.284 40.533-32.711 19.769-32.711 44.8c-0.058 0.812-0.090 1.76-0.090 2.716 0 22.175 17.683 40.22 39.716 40.803 24.090 0.001 35.894-17.208 40.303-38.683zM391.538 138.525c-30.293 0-47.502 17.92-50.204 53.476-0.001 0.052-0.002 0.113-0.002 0.174 0 3.374 2.349 6.198 5.501 6.928l17.257 2.285c0.27 0.036 0.581 0.057 0.898 0.057 3.647 0 6.652-2.745 7.063-6.282 2.563-21.224 6.83-27.055 20.056-27.055s18.204 12.658 18.204 23.324c0 16.924-9.244 23.040-27.022 33.28l-1.707 0.996c-19.484 11.378-36.267 21.191-36.267 50.916-0.054 0.853-0.085 1.849-0.085 2.853 0 26.072 20.879 47.267 46.829 47.777 24.652 0.001 41.434-15.786 47.265-44.373 0.085-0.413 0.134-0.887 0.134-1.373 0-3.523-2.561-6.447-5.923-7.012l-16.682-2.566c-0.281-0.039-0.605-0.061-0.935-0.061-3.371 0-6.204 2.299-7.018 5.414-4.42 19.535-13.238 19.535-16.651 19.535-8.813-0.736-15.687-8.071-15.687-17.011 0-1.177 0.119-2.327 0.346-3.437-0.019-9.703-0.019-12.406 26.292-28.334 22.044-13.084 38.827-25.6 38.827-55.467-0.284-32.427-19.911-54.044-50.489-54.044zM355.556 186.596c3.84-23.324 15.076-33.849 35.84-33.849 33.28 0 35.982 31.431 35.982 41.102 0 21.902-10.24 30.436-31.858 42.667-26.453 15.929-33.138 21.902-33.138 40.391-0.192 1.283-0.302 2.763-0.302 4.269 0 16.587 13.331 30.060 29.863 30.29 14.183-0.316 25.867-10.537 28.437-23.993l2.732-0.185c-2.845 14.753-15.654 25.745-31.031 25.745-0.141 0-0.281-0.001-0.422-0.003-18.147-0.572-32.657-15.437-32.657-33.691 0-0.957 0.040-1.904 0.118-2.84-0.008-20.5 9.521-27.042 29.29-38.562l1.707-0.996c17.493-10.098 34.133-19.769 34.133-45.653s-16.782-37.547-32.427-37.547c-0.254-0.007-0.553-0.011-0.853-0.011-17.909 0-32.427 14.518-32.427 32.427 0 0.004 0 0.008 0 0.012zM542.862 279.751c-2.844 12.516-8.96 25.031-23.609 25.031-12.676-0.364-22.813-10.727-22.813-23.458 0-1.41 0.124-2.791 0.363-4.133-0.021-14.081 2.824-18.063 29.704-34.134 21.049-12.516 35.413-23.040 35.413-49.493s-14.222-48.213-42.667-48.213-41.244 19.911-43.804 47.076l17.209 2.276c2.276-18.916 6.4-33.28 27.164-33.28 14.222 0 25.316 9.956 25.316 30.436s-14.222 30.151-32.284 40.533-32.711 19.769-32.711 44.8c-0.058 0.812-0.090 1.76-0.090 2.716 0 22.175 17.683 40.22 39.716 40.803 24.090 0.001 35.894-17.208 40.303-38.683zM518.684 138.525c-30.436 0-47.502 18.062-50.916 53.618 0.047 3.588 2.745 6.532 6.223 6.965l17.244 2.279c0.288 0.042 0.62 0.066 0.958 0.066 1.631 0 3.132-0.561 4.319-1.499 1.432-1.114 2.426-2.762 2.683-4.645 2.564-21.228 6.831-27.059 20.057-27.059s18.204 12.658 18.204 23.324c0 16.924-9.244 23.040-27.022 33.28l-1.707 0.996c-19.484 11.378-36.267 21.191-36.267 50.916-0.054 0.853-0.085 1.849-0.085 2.853 0 26.072 20.879 47.267 46.829 47.777 24.652 0.001 41.434-15.786 47.265-44.373 0.085-0.413 0.134-0.887 0.134-1.373 0-3.523-2.561-6.447-5.923-7.012l-16.682-2.566c-0.281-0.039-0.605-0.061-0.935-0.061-3.371 0-6.204 2.299-7.018 5.414-4.42 19.535-13.238 19.535-16.651 19.535-8.813-0.736-15.687-8.071-15.687-17.011 0-1.177 0.119-2.327 0.346-3.437-0.019-9.703-0.019-12.406 26.292-28.334 22.044-13.084 38.827-25.6 38.827-55.467-0.284-32.569-19.911-54.187-50.489-54.187zM483.556 186.596c3.84-23.324 15.076-33.849 35.84-33.849 33.28 0 35.982 31.431 35.982 41.102 0 21.902-10.24 30.436-31.858 42.667-26.453 15.929-33.138 21.902-33.138 40.391-0.192 1.283-0.302 2.763-0.302 4.269 0 16.587 13.331 30.060 29.863 30.29 14.183-0.316 25.867-10.537 28.437-23.993l2.732-0.185c-2.845 14.753-15.654 25.745-31.031 25.745-0.141 0-0.281-0.001-0.422-0.003-18.147-0.572-32.657-15.437-32.657-33.691 0-0.957 0.040-1.904 0.118-2.84-0.008-20.5 9.521-27.042 29.29-38.562l1.707-0.996c17.493-10.098 34.133-19.769 34.133-45.653s-16.782-37.547-32.427-37.547c-0.254-0.007-0.553-0.011-0.853-0.011-17.909 0-32.427 14.518-32.427 32.427 0 0.004 0 0.008 0 0.012zM692.764 233.387c0-21.476 0.711-87.893-47.36-87.893s-48.071 65.991-48.071 87.893c0 28.444 1.849 87.609 47.36 87.609 48.782 0 48.071-64.996 48.071-87.609zM615.964 233.387c0-46.080 5.404-71.111 29.44-71.111 29.724 0 29.44 42.667 29.44 71.111 0 32.284 0.711 71.111-29.44 71.111s-29.44-45.938-29.44-71.111zM645.404 138.525c-0.56-0.025-1.216-0.039-1.876-0.039-12.464 0-23.758 5.011-31.978 13.128-21.186 21.186-21.044 61.009-21.044 80.066v1.707c0 23.467 0 94.72 54.471 94.72 16.356 0 37.973-6.827 48.213-39.396 4.038-14.417 6.359-30.974 6.359-48.072 0-2.15-0.037-4.292-0.11-6.424l-7.103-0.686 7.111-0.996c0.062-1.785 0.097-3.882 0.097-5.988 0-17.093-2.32-33.644-6.661-49.356-10.218-31.697-31.267-38.666-47.481-38.666zM645.404 313.885c-36.124 0-40.249-45.938-40.249-80.498v-1.564c0-15.929 0-53.049 16.924-70.116 5.644-5.558 13.396-8.99 21.949-8.99 0.484 0 0.965 0.011 1.443 0.033 16.999-0.002 28.377 9.811 34.634 30.006 3.589 13.129 5.652 28.203 5.652 43.76 0 2.116-0.038 4.224-0.114 6.322l0.009 1.688c0.069 1.822 0.108 3.962 0.108 6.112 0 15.573-2.064 30.665-5.932 45.016-2.613 15.576-17.040 28.19-34.421 28.233zM645.404 154.596c-33.707 0-36.551 38.969-36.551 78.791v1.849c-0.086 2.147-0.135 4.668-0.135 7.199 0 13.765 1.448 27.193 4.199 40.138 6.319 24.058 21.11 29.321 32.487 29.321 0.12 0.002 0.262 0.003 0.404 0.003 16.534 0 30.191-12.321 32.289-28.282 2.666-12.167 4.184-25.952 4.184-40.093 0-2.964-0.067-5.913-0.199-8.844l0.015-1.859c0.065-1.927 0.102-4.192 0.102-6.466 0-14.679-1.539-28.999-4.464-42.806-6.162-23.83-20.953-28.95-32.331-28.95zM645.404 297.671c-5.973 0-14.222-2.133-18.916-19.911-2.256-10.731-3.547-23.061-3.547-35.693 0-2.453 0.049-4.894 0.145-7.323l-0.011-1.5c0-53.76 8.533-64.569 22.329-64.569 6.542 0 14.222 2.133 18.916 19.058 2.273 11.1 3.575 23.857 3.575 36.919 0 2.772-0.059 5.53-0.175 8.273l0.013 2.879c0.119 2.475 0.187 5.375 0.187 8.292 0 12.82-1.311 25.334-3.806 37.414-0.335 8.586-8.394 16.308-18.257 16.308-0.159 0-0.318-0.002-0.477-0.006z" />
<glyph unicode="&#xe95f;" glyph-name="m_orgchart" d="M924.444 320.569h-136.533v109.653c0 7.855-6.368 14.222-14.222 14.222h-240.64v90.88h148.48c11.782 0 21.333 9.551 21.333 21.333v255.289c0 11.782-9.551 21.333-21.333 21.333h-323.413c-11.782 0-21.333-9.551-21.333-21.333v-255.289c0-11.782 9.551-21.333 21.333-21.333h146.489v-90.88h-240.782c-7.855 0-14.222-6.368-14.222-14.222v-109.653h-136.818c-0.002 0-0.005 0-0.008 0-11.782 0-21.333-9.551-21.333-21.333 0-0.2 0.003-0.399 0.008-0.598l-0.001-254.549c0-11.782 9.551-21.333 21.333-21.333h302.080c11.782 0 21.333 9.551 21.333 21.333v254.578c0 11.782-9.551 21.333-21.333 21.333h-136.818v96h481.422v-95.431h-136.818c-11.782 0-21.333-9.551-21.333-21.333v-255.147c0-11.782 9.551-21.333 21.333-21.333h301.796c11.782 0 21.333 9.551 21.333 21.333v254.578c0.005 0.169 0.008 0.369 0.008 0.569 0 11.782-9.551 21.333-21.333 21.333-0.003 0-0.005 0-0.008 0zM379.164 789.903h281.031v-211.911h-280.747v212.622zM393.387 64.569h-259.271v213.333h259.413v-212.48zM903.253 64.569h-259.271v213.333h259.413v-212.48z" />
</font>
</defs>
</svg>
